<?xml version="1.0" encoding="UTF-8"?>
<svg id="Capa_1" data-name="Capa 1" xmlns="http://www.w3.org/2000/svg" viewBox="0 0 133.86 133.71">
  <defs>
    <style>
      .cls-1 {
        fill: #0d2437;
        stroke-width: 0px;
      }
    </style>
  </defs>
  <circle class="cls-1" cx="93.51" cy="40.82" r="5.89"/>
  <path class="cls-1" d="m67.34,42.48c-13.64,0-24.73,11.09-24.73,24.73s11.09,24.73,24.73,24.73,24.73-11.09,24.73-24.73-11.09-24.73-24.73-24.73Zm0,40.57c-8.73,0-15.84-7.1-15.84-15.84s7.11-15.84,15.84-15.84,15.84,7.11,15.84,15.84-7.1,15.84-15.84,15.84Z"/>
  <path class="cls-1" d="m86.97,117.41h-40.09c-16.63,0-30.16-13.53-30.16-30.16v-40.09c0-16.63,13.53-30.16,30.16-30.16h40.09c16.63,0,30.16,13.53,30.16,30.16v40.09c0,16.63-13.53,30.16-30.16,30.16ZM46.88,26.45c-11.42,0-20.71,9.29-20.71,20.71v40.09c0,11.42,9.29,20.71,20.71,20.71h40.09c11.42,0,20.71-9.29,20.71-20.71v-40.09c0-11.42-9.29-20.71-20.71-20.71h-40.09Z"/>
</svg>