<?xml version="1.0" encoding="UTF-8"?>
<svg id="Capa_1" data-name="Capa 1" xmlns="http://www.w3.org/2000/svg" viewBox="0 0 133.86 133.71">
  <defs>
    <style>
      .cls-1 {
        fill: #0d2437;
        stroke-width: 0px;
      }
    </style>
  </defs>
  <path class="cls-1" d="m83.47,47.34c0,12.08,0,24.17,0,36.25,0,.94.11,1.89.04,2.82-.09,1.17-.34,2.33-.5,3.5-.18,1.37-.68,2.64-1.06,3.95-.34,1.17-.85,2.27-1.37,3.36-.03.03-2.8,4.61-3.27,5.11-1.07,1.15-2.17,2.28-3.26,3.41-.15.15-.3.3-.45.45-.05.06-.11.12-.16.19-.51.38-1.02.77-1.52,1.15-.03.02-.07.05-.1.07-.72.45-1.42.95-2.17,1.35-1.28.68-2.56,1.36-3.89,1.94-1.58.69-3.25,1.17-4.96,1.44-1.1.17-2.21.32-3.32.4-1.15.09-2.3.16-3.45.09-1.37-.09-2.76-.23-4.1-.53-1.58-.36-3.12-.88-4.66-1.39-.88-.29-1.8-.58-2.58-1.07-1.54-.95-3.03-2-4.49-3.08-1.06-.79-2.05-1.68-3.02-2.58-.51-.47-.93-1.06-1.34-1.62-.83-1.13-1.67-2.26-2.41-3.45-.55-.89-1.03-1.85-1.41-2.83-.63-1.62-1.22-3.27-1.69-4.94-.32-1.14-.46-2.35-.59-3.54-.13-1.13-.21-2.28-.2-3.42.02-1.06.2-2.13.29-3.19.03-.4,1.66-6.36,1.93-7.1.27-.77.67-1.5,1.05-2.23.55-1.03,1.11-2.07,1.73-3.06.37-.59.87-1.12,1.34-1.65.95-1.06,1.89-2.13,2.89-3.14.55-.55,1.22-.97,1.84-1.45.45-.35.88-.74,1.36-1.06.43-.29.9-.52,1.36-.76.84-.44,1.66-.92,2.53-1.3,1.23-.53,2.48-1.04,3.75-1.46.83-.27,1.72-.37,2.59-.54.94-.18,1.87-.41,2.82-.49.87-.07,1.75.04,2.63.05.54.01,1.09,0,1.63,0-.01.01-.03.03-.03.04,0,.03.02.06.03.09v13.68c-.51-.04-.97-.07-1.43-.1-1.72-.1-3.39.14-5.01.72-1.53.55-3,1.25-4.24,2.32-.65.55-1.18,1.24-1.79,1.84-1.46,1.43-2.34,3.19-2.91,5.1-.33,1.12-.66,2.26-.6,3.46.05.93,0,1.87.13,2.78.14.95.38,1.91.71,2.82.56,1.56,1.36,3.01,2.45,4.28.49.56,1,1.12,1.58,1.58.99.78,1.93,1.65,3.14,2.09,1.19.44,2.37.96,3.6,1.23,1.49.32,3.03.4,4.55.05,1.06-.25,2.17-.38,3.18-.75.63-.23,1.31-.41,1.89-.78.59-.38,1.21-.71,1.78-1.12,1.79-1.28,3.28-2.86,4.38-4.78.71-1.24,1.12-2.58,1.41-3.97.46-2.22.3-4.47.31-6.7.05-19.8.09-39.59.13-59.39,0-.2,0-.4,0-.63h13.1c.14.5.42.98.27,1.59-.06.23.08.52.18.76.3.73.19,1.57.68,2.28.29.42.29,1.02.45,1.54.06.21.22.4.28.62.11.4.42.69.49,1.15.09.53.45,1.02.72,1.51,1.33,2.36,3.02,4.44,5.03,6.25.31.28,1.29,1.08,1.45,1.19,2.34,1.77,4.87,3.16,7.69,3.98.63.18,1.28.27,1.92.41.88.19,1.76.42,2.64.59.3.06.62-.02.93-.04v15.37c-4.5.42-8.75-.28-12.81-2.21-4.08-1.94-7.36-4.77-9.88-8.51l-.12-.1-.04.11Z"/>
</svg>