<?xml version="1.0" encoding="utf-8"?>
<!-- Generator: Adobe Illustrator 27.8.1, SVG Export Plug-In . SVG Version: 6.00 Build 0)  -->
<svg version="1.1" id="Capa_1" xmlns="http://www.w3.org/2000/svg" xmlns:xlink="http://www.w3.org/1999/xlink" x="0px" y="0px"
	 viewBox="0 0 505.65 310.51" style="enable-background:new 0 0 505.65 310.51;" xml:space="preserve">
<style type="text/css">
	.st0{fill:#FFFFFF;}
	.st1{fill:#1467B0;}
	.st2{fill:#1468B1;}
	.st3{fill:#3FA8DF;}
	.st4{fill:#7FA2D5;}
	.st5{fill:#6355DE;}
	.st6{fill:#4F78E4;}
</style>
<g>
	<path d="M59.7,290.05l8.34-21.91h3.92l8.34,21.91h-3.86l-1.73-4.53h-9.4l-1.73,4.53H59.7z M73.42,281.92l-3.41-8.98l-3.44,8.98
		H73.42z"/>
	<path d="M81.51,281.62v-13.48h3.59v13.48c0,3.16,1.92,5.17,4.93,5.17c3.04,0,4.93-2.01,4.93-5.17v-13.48h3.59v13.48
		c0,5.17-3.47,8.73-8.52,8.73S81.51,286.79,81.51,281.62z"/>
	<path d="M103.05,268.14h8.43c6.15,0,10.59,4.56,10.59,10.95s-4.41,10.95-10.59,10.95h-8.43V268.14z M106.64,286.46h4.84
		c4.17,0,7-2.98,7-7.36c0-4.38-2.83-7.36-7-7.36h-4.84V286.46z"/>
	<path d="M128.88,290.05h-3.59v-21.91h3.59V290.05z"/>
	<path d="M131.71,271.73v-3.59h17.31v3.59h-6.85v18.32h-3.59v-18.32H131.71z"/>
	<path d="M162.99,293.56h-3.59v-29.4h3.59V293.56z"/>
	<path d="M173.36,271.73v-3.59h17.31v3.59h-6.85v18.32h-3.59v-18.32H173.36z"/>
	<path d="M189,290.05l8.34-21.91h3.93l8.34,21.91h-3.86l-1.73-4.53h-9.4l-1.73,4.53H189z M202.72,281.92l-3.41-8.98l-3.44,8.98
		H202.72z"/>
	<path d="M210.23,290.05l7.21-11.26l-6.85-10.65h4.29l4.69,7.3l4.69-7.3h4.26l-6.82,10.65l7.18,11.26h-4.26l-5.05-7.88l-5.08,7.88
		H210.23z"/>
	<path d="M242.6,293.56h-3.59v-29.4h3.59V293.56z"/>
	<path d="M264.75,267.84c3.26,0,6.18,1.37,8.25,3.59l-2.53,2.56c-1.43-1.58-3.47-2.56-5.72-2.56c-4.23,0-7.67,3.44-7.67,7.67
		c0,4.23,3.44,7.67,7.67,7.67c2.25,0,4.29-0.97,5.72-2.56l2.53,2.56c-2.07,2.19-4.99,3.59-8.25,3.59c-6.21,0-11.26-5.05-11.26-11.26
		S258.55,267.84,264.75,267.84z"/>
	<path d="M274.37,279.1c0-6.21,5.05-11.26,11.26-11.26c6.21,0,11.26,5.05,11.26,11.26s-5.05,11.26-11.26,11.26
		C279.42,290.35,274.37,285.3,274.37,279.1z M285.62,286.76c4.23,0,7.67-3.44,7.67-7.67c0-4.23-3.44-7.67-7.67-7.67
		c-4.23,0-7.67,3.44-7.67,7.67C277.96,283.32,281.4,286.76,285.62,286.76z"/>
	<path d="M300.11,268.14h3.32l10.34,15.09v-15.09h3.59v21.91h-3.35l-10.31-15.09v15.09h-3.59V268.14z"/>
	<path d="M322.56,284.21c1.92,1.7,4.05,2.56,6.72,2.56c2.77,0,4.72-1.25,4.72-2.89c0-1.67-1.79-2.53-5.54-3.59
		c-3.56-1-7.21-2.4-7.21-6.33c0-3.86,3.35-6.12,7.85-6.12c2.98,0,6.05,1.34,7.94,3.5l-2.56,2.53c-1.43-1.58-3.47-2.43-5.63-2.43
		c-2.53,0-3.99,0.94-3.99,2.5c0,1.37,1.61,2.04,5.14,3.04c4.05,1.16,7.58,2.8,7.58,6.82c0,4.02-3.86,6.6-8.43,6.6
		c-3.62,0-6.6-1.31-9.04-3.56L322.56,284.21z"/>
	<path d="M340.78,281.62v-13.48h3.59v13.48c0,3.16,1.92,5.17,4.93,5.17c3.04,0,4.93-2.01,4.93-5.17v-13.48h3.59v13.48
		c0,5.17-3.47,8.73-8.52,8.73S340.78,286.79,340.78,281.62z"/>
	<path d="M365.91,268.14v18.32h10.44v3.59h-14.03v-21.91H365.91z"/>
	<path d="M374.76,271.73v-3.59h17.31v3.59h-6.85v18.32h-3.59v-18.32H374.76z"/>
	<path d="M398.43,290.05h-3.59v-21.91h3.59V290.05z"/>
	<path d="M402.94,268.14h3.32l10.34,15.09v-15.09h3.59v21.91h-3.35l-10.31-15.09v15.09h-3.59V268.14z"/>
	<path d="M434.4,267.84c3.44,0,6.72,1.49,8.79,4.02l-2.56,2.53c-1.4-1.86-3.68-2.95-6.12-2.95c-4.38,0-7.55,3.23-7.55,7.67
		s3.16,7.67,7.55,7.67c1.79,0,3.56-0.52,4.99-1.43v-3.68h-5.08v-3.59h8.67v8.95c-2.31,2.19-5.45,3.35-8.58,3.35
		c-6.27,0-11.14-4.87-11.14-11.26S428.16,267.84,434.4,267.84z"/>
</g>
<g>
	<path d="M50.97,238.62c-1.56,2.63-3.74,4.71-6.52,6.22c-2.78,1.51-5.95,2.27-9.5,2.27H21.47v-34.55h13.48
		c3.55,0,6.72,0.75,9.5,2.25c2.78,1.5,4.95,3.55,6.52,6.17c1.56,2.62,2.34,5.54,2.34,8.76v0.1
		C53.31,233.06,52.53,235.98,50.97,238.62z M44.06,224.45c-0.87-1.58-2.1-2.81-3.68-3.7c-1.58-0.89-3.39-1.33-5.43-1.33h-5.87v20.83
		h5.87c2.04,0,3.85-0.44,5.43-1.31c1.58-0.87,2.81-2.09,3.68-3.65c0.87-1.56,1.31-3.35,1.31-5.36v-0.1
		C45.36,227.82,44.93,226.03,44.06,224.45z"/>
	<path d="M73.01,247.7c-3.52,0-6.66-0.77-9.43-2.3c-2.76-1.53-4.91-3.64-6.44-6.34s-2.3-5.74-2.3-9.13v-0.1
		c0-3.26,0.78-6.25,2.34-8.98c1.56-2.73,3.73-4.89,6.49-6.49c2.76-1.6,5.86-2.39,9.28-2.39c2.99,0,5.53,0.39,7.6,1.16
		c2.07,0.77,4.06,1.97,5.97,3.58l-4.79,5.78c-1.45-1.22-2.85-2.11-4.2-2.67c-1.35-0.56-2.96-0.84-4.84-0.84
		c-1.81,0-3.47,0.49-4.99,1.46c-1.51,0.97-2.72,2.28-3.6,3.92c-0.89,1.65-1.33,3.44-1.33,5.38v0.1c0,2.07,0.44,3.95,1.33,5.63
		c0.89,1.68,2.13,2.99,3.73,3.92c1.6,0.94,3.4,1.41,5.41,1.41c2.86,0,5.25-0.69,7.16-2.07v-4.94h-7.65v-6.57h15.01v15.01
		C83.46,245.87,78.54,247.7,73.01,247.7z"/>
	<path d="M107.22,247.11h-7.6v-13.62l-13.28-20.93h8.89l8.24,13.87l8.39-13.87h8.64l-13.28,20.78V247.11z"/>
	<path d="M138.66,239.36h-14.61l-3.16,7.75h-7.75l14.81-34.8h7.01l14.81,34.8h-7.95L138.66,239.36z M126.77,232.64h9.18l-4.59-11.21
		L126.77,232.64z"/>
	<path d="M186.72,246.14c-2.19,1.04-4.86,1.56-8.02,1.56c-3.32,0-6.34-0.79-9.03-2.37c-2.7-1.58-4.82-3.73-6.37-6.44
		c-1.55-2.72-2.32-5.7-2.32-8.96v-0.1c0-3.26,0.77-6.25,2.3-8.98c1.53-2.73,3.67-4.89,6.42-6.49c2.75-1.6,5.85-2.39,9.3-2.39
		c3.06,0,5.66,0.45,7.8,1.36c2.14,0.91,4.08,2.23,5.83,3.97l-4.84,5.58c-1.42-1.28-2.83-2.25-4.25-2.91
		c-1.42-0.66-2.95-0.99-4.59-0.99c-1.91,0-3.63,0.49-5.16,1.46c-1.53,0.97-2.72,2.27-3.58,3.9c-0.86,1.63-1.28,3.43-1.28,5.41v0.1
		c0,1.97,0.43,3.79,1.28,5.46c0.86,1.66,2.04,2.98,3.55,3.95c1.51,0.97,3.24,1.46,5.18,1.46c1.84,0,3.44-0.33,4.79-0.99
		s2.78-1.68,4.29-3.06l4.84,4.89C190.95,243.57,188.91,245.11,186.72,246.14z"/>
	<path d="M227.05,238.81c-1.6,2.73-3.79,4.9-6.59,6.49c-2.8,1.6-5.94,2.39-9.43,2.39c-3.49,0-6.62-0.79-9.4-2.37
		c-2.78-1.58-4.96-3.73-6.54-6.44c-1.58-2.72-2.37-5.7-2.37-8.96v-0.1c0-3.26,0.8-6.25,2.39-8.98c1.6-2.73,3.79-4.89,6.59-6.49
		c2.8-1.6,5.94-2.39,9.43-2.39c3.49,0,6.62,0.79,9.4,2.37c2.78,1.58,4.96,3.73,6.54,6.44c1.58,2.71,2.37,5.7,2.37,8.96v0.1
		C229.44,233.09,228.64,236.08,227.05,238.81z M220.14,224.37c-0.91-1.66-2.15-2.98-3.73-3.95c-1.58-0.97-3.37-1.46-5.38-1.46
		c-2.01,0-3.79,0.48-5.36,1.43c-1.56,0.96-2.79,2.25-3.68,3.9c-0.89,1.65-1.33,3.46-1.33,5.43v0.1c0,1.97,0.45,3.79,1.36,5.46
		c0.9,1.66,2.15,2.98,3.73,3.95c1.58,0.97,3.37,1.46,5.38,1.46c2.01,0,3.79-0.48,5.36-1.43c1.56-0.95,2.79-2.25,3.68-3.9
		c0.89-1.64,1.33-3.46,1.33-5.43v-0.1C221.49,227.86,221.04,226.04,220.14,224.37z"/>
	<path d="M240.01,225.14v21.97h-7.5v-34.55h7.01l16.19,21.28v-21.28h7.5v34.55h-6.47L240.01,225.14z"/>
	<path d="M283.45,247.11h-7.6v-27.54h-10.51v-7.01h28.63v7.01h-10.51V247.11z"/>
	<path d="M314.2,239.36h-14.61l-3.16,7.75h-7.75l14.81-34.8h7.01l14.81,34.8h-7.95L314.2,239.36z M302.3,232.64h9.18l-4.59-11.21
		L302.3,232.64z"/>
	<path d="M356.43,238.62c-1.56,2.63-3.74,4.71-6.52,6.22c-2.78,1.51-5.95,2.27-9.5,2.27h-13.48v-34.55h13.48
		c3.55,0,6.72,0.75,9.5,2.25c2.78,1.5,4.95,3.55,6.52,6.17c1.56,2.62,2.34,5.54,2.34,8.76v0.1
		C358.77,233.06,357.99,235.98,356.43,238.62z M349.52,224.45c-0.87-1.58-2.1-2.81-3.68-3.7c-1.58-0.89-3.39-1.33-5.43-1.33h-5.87
		v20.83h5.87c2.04,0,3.85-0.44,5.43-1.31c1.58-0.87,2.81-2.09,3.68-3.65s1.31-3.35,1.31-5.36v-0.1
		C350.83,227.82,350.39,226.03,349.52,224.45z"/>
	<path d="M394.64,238.81c-1.6,2.73-3.79,4.9-6.59,6.49c-2.8,1.6-5.94,2.39-9.43,2.39c-3.49,0-6.62-0.79-9.4-2.37
		c-2.78-1.58-4.96-3.73-6.54-6.44c-1.58-2.72-2.37-5.7-2.37-8.96v-0.1c0-3.26,0.8-6.25,2.39-8.98c1.6-2.73,3.79-4.89,6.59-6.49
		c2.8-1.6,5.94-2.39,9.43-2.39c3.49,0,6.62,0.79,9.4,2.37c2.78,1.58,4.96,3.73,6.54,6.44c1.58,2.71,2.37,5.7,2.37,8.96v0.1
		C397.03,233.09,396.23,236.08,394.64,238.81z M387.73,224.37c-0.91-1.66-2.15-2.98-3.73-3.95c-1.58-0.97-3.37-1.46-5.38-1.46
		c-2.01,0-3.79,0.48-5.36,1.43c-1.56,0.96-2.79,2.25-3.68,3.9c-0.89,1.65-1.33,3.46-1.33,5.43v0.1c0,1.97,0.45,3.79,1.36,5.46
		c0.9,1.66,2.15,2.98,3.73,3.95c1.58,0.97,3.37,1.46,5.38,1.46c2.01,0,3.79-0.48,5.36-1.43c1.56-0.95,2.79-2.25,3.68-3.9
		c0.89-1.64,1.33-3.46,1.33-5.43v-0.1C389.08,227.86,388.63,226.04,387.73,224.37z"/>
	<path d="M413.67,236.05h-5.97v11.06h-7.6v-34.55h15.8c4.08,0,7.27,1.01,9.58,3.04c2.3,2.02,3.46,4.81,3.46,8.37v0.1
		c0,2.7-0.66,4.94-1.97,6.74c-1.32,1.79-3.13,3.12-5.43,3.97l8.44,12.34h-8.89L413.67,236.05z M419.64,220.67
		c-1.05-0.84-2.52-1.26-4.39-1.26h-7.55v9.92h7.7c1.81,0,3.23-0.44,4.27-1.33c1.04-0.89,1.55-2.07,1.55-3.55v-0.1
		C421.22,222.74,420.69,221.51,419.64,220.67z"/>
	<path d="M432.08,212.55h26.06v6.76h-18.51v7.01h16.29v6.76h-16.29v7.26h18.76v6.76h-26.31V212.55z"/>
	<path d="M482.95,244.76c-2.32,1.89-5.39,2.84-9.21,2.84c-2.67,0-5.27-0.47-7.8-1.41c-2.53-0.94-4.82-2.31-6.86-4.12l4.49-5.38
		c1.64,1.35,3.31,2.39,4.99,3.11s3.46,1.09,5.33,1.09c1.55,0,2.76-0.29,3.65-0.86c0.89-0.58,1.33-1.37,1.33-2.39v-0.1
		c0-0.69-0.18-1.27-0.54-1.73c-0.36-0.46-1.04-0.9-2.05-1.31c-1-0.41-2.46-0.86-4.37-1.36c-2.63-0.69-4.75-1.41-6.34-2.15
		c-1.6-0.74-2.85-1.78-3.75-3.11s-1.36-3.1-1.36-5.31v-0.1c0-2.07,0.52-3.89,1.55-5.46c1.04-1.56,2.47-2.78,4.29-3.65
		s3.91-1.31,6.25-1.31c4.9,0,9.18,1.46,12.83,4.39l-3.95,5.73c-3.26-2.27-6.25-3.41-8.98-3.41c-1.42,0-2.51,0.28-3.28,0.84
		c-0.77,0.56-1.16,1.28-1.16,2.17v0.1c0,0.76,0.21,1.37,0.62,1.85c0.41,0.48,1.13,0.91,2.15,1.31c1.02,0.39,2.58,0.86,4.69,1.38
		c3.75,0.99,6.52,2.25,8.29,3.78s2.67,3.73,2.67,6.59v0.1C486.43,240.25,485.27,242.87,482.95,244.76z"/>
</g>
<g>
	<path class="st1" d="M173.4,96.4c0-18.07,0-36.14,0-54.2c0-8.62,4.65-15.48,12.59-18.81c2.16-0.91,4.32-1.29,6.65-1.29
		c23.92,0.03,47.83,0.02,71.75,0.02c4.38,0,7.76,2.53,8.66,6.45c1.19,5.18-2.56,10.07-7.89,10.28c-0.44,0.02-0.89,0.01-1.33,0.01
		c-24.47,0-48.94,0-73.41-0.02c-0.67,0-1.01,0.26-1.29,0.79c-0.42,0.81-0.51,1.67-0.51,2.57c0.01,21.72,0.01,43.44,0.01,65.16
		c0,14.31,0,28.61,0,42.92c0,0.37-0.01,0.74,0.01,1.11c0.12,1.76,0.51,2.12,2.24,2.12c24.62,0,49.24-0.01,73.85,0
		c4.81,0,8.54,3.8,8.52,8.6c-0.01,4.71-3.79,8.46-8.56,8.46c-24.62,0.01-49.24,0.04-73.85-0.04c-3.76-0.01-7.04-1.84-9.95-4.13
		c-5.01-3.95-7.48-9.21-7.49-15.57C173.38,132.68,173.4,114.54,173.4,96.4z"/>
	<path class="st2" d="M298.25,29.66c0.02-4.43,2.46-7.68,5.89-8.31c1.96-0.36,3.64,0.27,5.1,1.54c3.57,3.1,3.61,9.34,0.09,12.51
		c-2.75,2.48-6.59,2.24-9.02-0.58C298.9,33.18,298.27,31.26,298.25,29.66z"/>
	<path class="st2" d="M330.38,29.25c-0.04,2.06-0.66,3.95-2.04,5.55c-2.44,2.84-6.26,3.08-9.04,0.59
		c-3.51-3.15-3.45-9.46,0.13-12.54c2.76-2.38,6.57-2.07,8.96,0.75C329.75,25.22,330.36,27.11,330.38,29.25z"/>
	<path class="st3" d="M274.57,52.15c0,3.97-2.4,7.2-5.84,7.83c-2.23,0.41-4.09-0.4-5.59-1.98c-2.98-3.13-3-8.41-0.09-11.61
		c2.76-3.04,7.15-2.86,9.72,0.42C274.01,48.37,274.58,50.16,274.57,52.15z"/>
	<path class="st3" d="M311.31,52.28c-0.09,2.38-0.88,4.58-2.82,6.24c-2.55,2.17-5.85,2.08-8.33-0.17c-3.52-3.2-3.39-9.55,0.26-12.59
		c3.31-2.76,7.91-1.62,9.96,2.47C311,49.46,311.28,50.78,311.31,52.28z"/>
	<path class="st3" d="M279.17,52.14c0.02-2.31,0.74-4.34,2.39-6c2.62-2.63,6.5-2.55,9.05,0.16c2.88,3.07,2.97,8.29,0.2,11.45
		c-2.82,3.22-7.35,3.07-9.93-0.36C279.71,55.85,279.15,54.09,279.17,52.14z"/>
	<path class="st2" d="M280.05,29.13c0.01-3.95,2.41-7.15,5.87-7.79c1.78-0.33,3.37,0.19,4.76,1.28c3.78,2.95,4.04,9.41,0.52,12.68
		c-2.77,2.57-6.63,2.38-9.12-0.47C280.75,33.32,280.05,31.34,280.05,29.13z"/>
	<path class="st2" d="M293.68,162.71c-0.04,2.43-0.79,4.56-2.64,6.21c-2.78,2.48-6.74,2.13-9.1-0.75
		c-2.45-2.99-2.55-7.59-0.24-10.68c2.68-3.58,7.58-3.6,10.29-0.04C293.16,159,293.69,160.77,293.68,162.71z"/>
	<path class="st2" d="M311.97,162.73c-0.1,2.16-0.71,4.08-2.17,5.68c-2.58,2.83-6.64,2.89-9.29,0.12
		c-2.96-3.08-3.01-8.46-0.11-11.59c2.66-2.88,6.69-2.9,9.37-0.03C311.3,158.55,311.9,160.56,311.97,162.73z"/>
	<path class="st3" d="M293.27,140.18c-0.03,2.6-0.58,4.43-1.85,6.02c-2.69,3.35-7.5,3.28-10.08-0.15
		c-2.29-3.03-2.32-7.37-0.09-10.42c2.66-3.63,7.66-3.65,10.35-0.03C292.66,137.05,293.26,138.89,293.27,140.18z"/>
	<g>
		<path class="st4" d="M330.37,119.61c-0.05,1.73-0.76,3.88-2.57,5.48c-3.11,2.74-7.33,2.11-9.67-1.33
			c-2.11-3.12-1.89-7.55,0.52-10.4c2.77-3.28,7.53-3.08,10.09,0.42C329.83,115.26,330.37,116.98,330.37,119.61z"/>
		<path class="st4" d="M298.25,118.86c0.01-3.33,1.94-6.41,4.63-7.42c2.99-1.11,6,0.02,7.87,2.97c2.13,3.38,1.4,8.28-1.63,10.87
			c-2.86,2.44-7.01,1.84-9.28-1.36C298.75,122.41,298.25,120.71,298.25,118.86z"/>
		<path class="st4" d="M274.35,119c-0.04,2.38-0.79,4.53-2.6,6.11c-3.14,2.74-7.31,2.09-9.64-1.39c-2.04-3.06-1.9-7.37,0.43-10.22
			c1.52-1.87,3.55-2.82,5.96-2.41c2.76,0.47,4.43,2.32,5.38,4.87C274.23,116.93,274.43,117.94,274.35,119z"/>
	</g>
	<g>
		<path class="st4" d="M298.25,73.79c0.01-3.85,2.37-7.05,5.77-7.78c1.73-0.37,3.28,0.11,4.69,1.1c4.01,2.83,4.34,9.73,0.63,12.92
			c-3.21,2.76-7.51,2.09-9.75-1.54C298.7,77.06,298.24,75.49,298.25,73.79z"/>
		<path class="st4" d="M330.37,73.9c-0.01,4.02-2.46,7.18-6.11,7.77c-2,0.32-3.68-0.43-5.1-1.81c-3.23-3.17-3.31-8.74-0.16-11.97
			c3.22-3.3,8.35-2.34,10.45,1.96C330.07,71.13,330.43,72.47,330.37,73.9z"/>
		<path class="st4" d="M293.63,73.65c0,4.23-2.28,7.31-5.9,8.01c-1.96,0.38-3.65-0.31-5.08-1.6c-3.68-3.31-3.46-9.73,0.4-12.82
			c3.25-2.6,8.06-1.22,9.82,2.82C293.41,71.26,293.74,72.49,293.63,73.65z"/>
	</g>
	<g>
		<path class="st5" d="M274.58,96.46c-0.06,2.47-0.87,4.67-2.77,6.26c-2.77,2.32-6.2,2.02-8.73-0.61
			c-3.25-3.37-2.81-9.44,0.89-12.29c2.95-2.27,6.79-1.65,9.01,1.45C274.08,92.82,274.6,94.55,274.58,96.46z"/>
		<path class="st5" d="M292.75,96.27c0.09,2.8-0.89,4.97-2.88,6.6c-3.14,2.57-7.43,1.52-9.65-2.27c-2.01-3.44-1.1-8.35,1.99-10.82
			c3.4-2.72,8.39-1.07,10.03,3.33C292.64,94.19,292.84,95.31,292.75,96.27z"/>
	</g>
</g>
</svg>
