<?xml version="1.0" encoding="utf-8"?>
<!-- Generator: Adobe Illustrator 28.1.0, SVG Export Plug-In . SVG Version: 6.00 Build 0)  -->
<svg version="1.1" fill="white" id="Capa_1" xmlns="http://www.w3.org/2000/svg" xmlns:xlink="http://www.w3.org/1999/xlink" x="0px" y="0px"
	 viewBox="0 0 283.46 283.46" style="enable-background:new 0 0 283.46 283.46;" xml:space="preserve">
<style type="text/css">
	.st0{stroke:#000000;stroke-width:3;stroke-miterlimit:10;}
	.st1{fill:#010202;}
</style>
<path class="st0" d="M60.1,141.61c0-31.64,0.1-63.27-0.08-94.91c-0.04-6.48,5.14-12.17,11.86-12.15
	c46.55,0.14,93.1,0.07,139.66,0.07c7.23,0,11.9,4.77,11.91,12.23c0.01,63.2,0.01,126.41,0,189.61c0,7.67-4.71,12.47-12.15,12.47
	c-46.36,0-92.71-0.04-139.07,0.04c-7.18,0.01-12.24-5.49-12.2-12.47C60.21,204.89,60.1,173.25,60.1,141.61z M165.2,85.1
	c0,3.33-0.05,6.65,0.01,9.98c0.1,5.2,3.47,8.8,8.23,8.83c6.01,0.04,12.02,0.03,18.04,0c4.94-0.03,8.27-3.45,8.5-8.8
	c0.13-2.96,0.08-5.94,0.03-8.91c-0.05-2.73-1.56-4.46-3.76-4.49c-2.25-0.03-3.7,1.61-3.8,4.43c-0.08,2.33-0.1,4.67-0.03,7.01
	c0.06,1.82-0.63,2.57-2.3,2.55c-5.04-0.04-10.08-0.05-15.11,0c-1.6,0.02-2.24-0.68-2.22-2.4c0.04-5.52,0.04-11.04,0-16.56
	c-0.01-1.62,0.57-2.32,2.09-2.28c2.22,0.06,4.45,0.08,6.67-0.03c2.67-0.13,4.01-1.57,4.02-4.14c0.02-2.5-1.37-3.94-4.1-4.02
	c-2.75-0.09-5.5-0.11-8.24,0.02c-4.88,0.23-7.98,3.76-8.04,9.03C165.17,78.59,165.2,81.84,165.2,85.1z M165.21,208.61
	c0,3.33-0.04,6.66,0.01,9.99c0.08,5.28,3.04,8.75,7.9,8.87c6.27,0.15,12.55,0.14,18.83,0c4.76-0.1,7.82-3.42,8.04-8.55
	c0.13-3.04,0.09-6.09,0.02-9.13c-0.05-2.57-1.59-4.33-3.67-4.41c-2.24-0.08-3.76,1.56-3.87,4.36c-0.09,2.33-0.1,4.68-0.02,7.01
	c0.06,1.79-0.59,2.63-2.27,2.61c-5.11-0.05-10.21-0.08-15.32-0.05c-1.41,0.01-2.05-0.57-2.05-2.1c0.02-5.59,0.02-11.19,0-16.78
	c0-1.58,0.58-2.32,2.12-2.28c2.35,0.06,4.72,0.1,7.07-0.08c2.44-0.18,3.67-1.83,3.59-4.36c-0.08-2.2-1.45-3.68-3.73-3.75
	c-2.88-0.09-5.76-0.12-8.63,0.02c-4.89,0.24-7.94,3.76-7.99,9.08C165.18,202.24,165.21,205.42,165.21,208.61z M165.23,146.72
	c0,3.33-0.04,6.65,0.01,9.98c0.08,5.26,3.39,8.99,8.27,9.09c6.02,0.11,12.04,0.11,18.06,0c4.87-0.08,8.22-3.69,8.43-8.97
	c0.11-2.9,0.08-5.8,0.02-8.7c-0.06-2.76-1.53-4.48-3.73-4.53c-2.27-0.04-3.69,1.51-3.81,4.38c-0.1,2.4-0.09,4.81-0.05,7.22
	c0.03,1.7-0.63,2.45-2.22,2.43c-5.04-0.04-10.08-0.06-15.11,0.01c-1.71,0.02-2.33-0.74-2.32-2.52c0.04-5.45,0.05-10.89-0.01-16.34
	c-0.02-1.87,0.74-2.46,2.39-2.43c2.35,0.04,4.71,0.02,7.05-0.22c2.28-0.24,3.41-1.78,3.36-4.12c-0.05-2.23-1.15-3.64-3.43-3.77
	c-3.06-0.17-6.14-0.22-9.2,0c-4.75,0.35-7.62,3.78-7.68,8.91C165.2,140.35,165.23,143.54,165.23,146.72z M115.25,136.39
	c9.88,0,19.75,0.01,29.63-0.01c0.84,0,1.71-0.02,2.53-0.23c1.81-0.45,2.92-2.02,2.95-3.97c0.03-1.95-1.05-3.47-2.93-3.95
	c-0.88-0.22-1.81-0.31-2.72-0.31c-19.56-0.02-39.11-0.02-58.67,0c-0.97,0-1.96,0.1-2.92,0.31c-1.9,0.41-2.93,1.86-2.91,3.92
	c0.01,2.09,1.02,3.57,2.87,3.98c0.95,0.21,1.95,0.25,2.92,0.25C95.76,136.4,105.5,136.39,115.25,136.39z M115.07,198.17
	c4.19,0,8.38,0,12.57,0c6.15,0,12.3,0.05,18.46,0c2.57-0.02,4.21-1.79,4.2-4.28c-0.02-2.32-1.72-3.94-4.21-3.99
	c-3.79-0.07-7.59-0.17-11.38-0.18c-9.36-0.03-18.72-0.03-28.08,0c-7.33,0.02-14.65,0.11-21.98,0.19c-2.68,0.03-4.24,1.41-4.36,3.78
	c-0.14,2.8,1.51,4.47,4.55,4.47C94.92,198.18,105,198.17,115.07,198.17z M115.28,74.47c9.69,0,19.38,0.02,29.06-0.03
	c1.22-0.01,2.48-0.22,3.64-0.6c1.55-0.5,2.17-1.81,2.17-3.57c0-1.81-0.8-2.98-2.29-3.49c-1.04-0.35-2.17-0.49-3.26-0.49
	c-19.64-0.03-39.27-0.03-58.91,0c-0.9,0-1.81,0.17-2.69,0.38c-1.79,0.42-2.57,1.72-2.59,3.66c-0.02,1.95,0.8,3.25,2.53,3.72
	c1,0.27,2.06,0.4,3.09,0.41C95.78,74.48,105.53,74.47,115.28,74.47z M101.73,155.85c5.56,0,11.13,0.03,16.69-0.01
	c2.96-0.02,4.61-1.57,4.61-4.21c0-2.64-1.7-4.2-4.62-4.21c-3.53-0.01-7.07,0-10.6,0c-7.72,0-15.44-0.02-23.17,0.01
	c-2.99,0.01-4.77,2.24-4.23,5.16c0.37,1.99,1.88,3.22,4.24,3.24C90.34,155.88,96.03,155.85,101.73,155.85z M101.53,217.72
	c5.63,0,11.26,0.01,16.89-0.01c2.69-0.01,4.52-1.67,4.59-4.11c0.07-2.56-1.7-4.23-4.57-4.3c-0.59-0.01-1.18-0.01-1.77-0.01
	c-9.29,0-18.59,0-27.88,0c-1.64,0-3.27-0.01-4.91,0.06c-1.66,0.07-2.85,0.97-3.43,2.67c-0.98,2.92,0.89,5.64,4,5.67
	C90.14,217.76,95.83,217.72,101.53,217.72z M101.77,94.04c5.63,0,11.25,0.01,16.88,0c2.7-0.01,4.29-1.49,4.37-4
	c0.09-2.63-1.45-4.37-4.23-4.38c-11.39-0.06-22.77-0.06-34.16,0c-2.81,0.01-4.35,1.72-4.3,4.33c0.05,2.53,1.73,4.05,4.55,4.05
	C90.52,94.05,96.14,94.04,101.77,94.04z M205.23,66.47c-0.15-0.28-0.22-0.5-0.36-0.65c-1.13-1.17-2.24-2.38-3.46-3.44
	c-0.26-0.23-1.18-0.11-1.47,0.18c-6.91,6.9-13.77,13.86-20.66,20.79c-0.71,0.71-0.65,1.26,0.04,1.92c0.94,0.9,1.87,1.82,2.75,2.78
	c0.7,0.76,1.27,0.81,2.03,0.04c6.78-6.88,13.59-13.74,20.38-20.61C204.77,67.18,204.98,66.81,205.23,66.47z M205.33,128.8
	c-0.15-0.28-0.22-0.5-0.36-0.65c-1.13-1.17-2.24-2.38-3.46-3.44c-0.26-0.23-1.18-0.11-1.47,0.18c-6.91,6.9-13.77,13.86-20.66,20.79
	c-0.71,0.71-0.65,1.26,0.04,1.92c0.94,0.9,1.87,1.82,2.75,2.78c0.7,0.76,1.27,0.81,2.03,0.04c6.78-6.88,13.59-13.74,20.38-20.61
	C204.87,129.51,205.08,129.14,205.33,128.8z M204.73,191.35c-0.15-0.28-0.22-0.5-0.36-0.65c-1.13-1.17-2.24-2.38-3.46-3.44
	c-0.26-0.23-1.18-0.11-1.47,0.18c-6.91,6.9-13.77,13.86-20.66,20.79c-0.71,0.71-0.65,1.26,0.04,1.92c0.94,0.9,1.87,1.82,2.75,2.78
	c0.7,0.76,1.27,0.81,2.03,0.04c6.78-6.88,13.59-13.74,20.38-20.61C204.27,192.06,204.48,191.69,204.73,191.35z"/>
</svg>
