<?xml version="1.0" encoding="utf-8"?>
<!-- Generator: Adobe Illustrator 28.1.0, SVG Export Plug-In . SVG Version: 6.00 Build 0)  -->
<svg version="1.1"  id="Capa_1" xmlns="http://www.w3.org/2000/svg" xmlns:xlink="http://www.w3.org/1999/xlink" x="0px" y="0px"
	 viewBox="0 0 283.46 283.46" style="enable-background:new 0 0 283.46 283.46;" xml:space="preserve">
<style type="text/css">
	.st0{stroke:#000000;stroke-width:3;stroke-miterlimit:10;}
	.st1{fill:white;}
</style>
<g>
	<path class="st1" d="M218.32,87.59c-0.07,0-0.76,0.07-1.45,0.07c-12.61,0.01-25.22,0.01-37.83,0c-6.13,0-8.54-2.48-8.54-8.8
		c-0.01-13.85,0-27.71,0-40.98C186.33,54.35,202.43,71.08,218.32,87.59z"/>
	<path class="st1" d="M220.58,97.17c0-0.21-25.95-0.15-43.9-0.17c-5.31-0.57-9.92-2.8-13.29-7.66c-2.37-3.42-3.24-7.3-3.46-11.34
		c0-18.52,0-44.02-0.07-44.03c0,0,0,0,0,0c-1.11,0-1.88,0-2.65,0c-0.01,0-0.02,0-0.02,0c-27.21,0.01-55.64,0.08-82.72,0
		c-6.48-0.02-11.47,5.7-11.43,12.21c0.18,31.8,0.08,63.6,0.08,95.4c0,31.8,0.1,63.6-0.08,95.4c-0.04,7.01,4.84,12.54,11.76,12.53
		c44.69-0.08,89.37-0.04,134.06-0.04c7.18,0,11.72-4.83,11.72-12.53C220.57,191.02,220.58,143.09,220.58,97.17z M142.68,195.06
		H93.17c-1.6,0-2.9-1.27-2.9-2.83c0-1.56,1.3-2.83,2.9-2.83h49.51c1.6,0,2.9,1.27,2.9,2.83
		C145.58,193.79,144.28,195.06,142.68,195.06z M184.55,175.49H93.17c-1.6,0-2.9-1.27-2.9-2.83c0-1.56,1.3-2.83,2.9-2.83h91.37
		c1.6,0,2.9,1.27,2.9,2.83C187.45,174.22,186.15,175.49,184.55,175.49z M184.55,155.71H93.17c-1.6,0-2.9-1.27-2.9-2.83
		c0-1.56,1.3-2.83,2.9-2.83h91.37c1.6,0,2.9,1.27,2.9,2.83C187.45,154.44,186.15,155.71,184.55,155.71z M184.55,135.92H93.17
		c-1.6,0-2.9-1.27-2.9-2.83c0-1.56,1.3-2.83,2.9-2.83h91.37c1.6,0,2.9,1.27,2.9,2.83C187.45,134.65,186.15,135.92,184.55,135.92z"/>
</g>
</svg>
