<?xml version="1.0" encoding="utf-8"?>
<!-- Generator: Adobe Illustrator 28.1.0, SVG Export Plug-In . SVG Version: 6.00 Build 0)  -->
<svg version="1.1" fill="white" id="Capa_1" xmlns="http://www.w3.org/2000/svg" xmlns:xlink="http://www.w3.org/1999/xlink" x="0px" y="0px"
	 viewBox="0 0 283.46 283.46" style="enable-background:new 0 0 283.46 283.46;" xml:space="preserve">
<style type="text/css">
	.st0{fill:#010202;}
	.st1{opacity:0.78;}
	.st2{fill:#097BB3;}
	.st3{fill:#FFFFFF;stroke:#097BB3;stroke-width:0.25;stroke-miterlimit:10;}
	.st4{fill:#FFFFFF;}
	.st5{fill:#097BB3;stroke:#097BB3;stroke-width:0.11;stroke-miterlimit:10;}
</style>
<g>
	<path d="M176.39,26.91c0,10.58,0,20.81,0,31.66c-1.77-1.92-3.24-3.46-4.64-5.05c-2.75-3.11-5.7-5.91-9.99-6.67
		c-1.17-0.21-2.38-0.3-3.57-0.3c-28.09-0.02-56.19-0.01-84.28-0.01c-0.84,0-1.67,0-2.61,0c-0.08-0.48-0.19-0.8-0.19-1.13
		c-0.01-4.87-0.04-9.74,0-14.61c0.02-2.71,1.16-3.79,3.9-3.88c0.35-0.01,0.71,0,1.06,0c32.61,0,65.22,0,97.83,0
		C174.65,26.91,175.41,26.91,176.39,26.91z"/>
	<path d="M212.81,134.1c-2.54-0.26-4.97-0.51-7.41-0.76c-1.42-0.15-1.29-1.22-1.29-2.21c0-10.16,0-20.32-0.01-30.48
		c0-2.75,0.12-5.52-0.13-8.25c-0.34-3.78-2.15-6.92-4.79-9.65c-4.41-4.56-8.75-9.2-13.11-13.81c-0.46-0.48-0.83-1.05-1.44-1.83
		c9.57,0,18.77,0,28.17,0C212.81,89.46,212.81,111.7,212.81,134.1z"/>
	<path d="M211,58.46c-6.1,0-11.58,0-17.06,0c-2.47,0-4.94-0.03-7.4,0.01c-1.24,0.02-1.85-0.49-1.84-1.73
		c0.09-8.6,0.17-17.2,0.27-25.8c0-0.1,0.16-0.2,0.43-0.53C193.81,39.64,202.19,48.81,211,58.46z"/>
	<path d="M190.91,88.29c-3.59,0-7.17,0-10.76,0c-4.16,0-8.33-0.01-12.49,0c-1.16,0-2.13-0.16-2.13-1.67c0.01-8.74,0-17.48,0-26.95
		c8.82,9.66,17.23,18.85,25.64,28.05C191.08,87.91,190.99,88.1,190.91,88.29z"/>
	<path d="M201.6,238.07c0-4.15,0-8.09,0-12.31c4.66-0.54,9.29-1.08,14.09-1.64c0,3.6,0.16,6.9-0.06,10.18
		c-0.13,1.97-1.51,3.56-3.53,3.7C208.7,238.24,205.25,238.07,201.6,238.07z"/>
	<path d="M196.66,226.67c-1.49-0.39-2.85-0.72-4.19-1.11c-15.16-4.41-26.41-13.3-31.55-28.61c-6.75-20.1-2.42-39.07,14.46-52.49
		c5.27-4.19,11.41-6.69,17.51-9.27c1.42-0.6,1.83-1.37,1.82-2.83c-0.06-11.37-0.03-22.74-0.03-34.11c0-0.69,0-1.38,0-2.38
		c-1.19,0-2.03,0-2.87,0c-8.9,0-17.79,0.03-26.69-0.01c-5.92-0.03-8.68-2.85-8.69-8.73c-0.01-9.53,0-19.07,0-28.6
		c0-0.75,0-1.51,0-2.49c-1.1,0-1.93,0-2.76,0c-34.53,0-69.05,0-103.58,0c-0.71,0-1.41-0.02-2.12,0.04
		c-2.29,0.19-3.33,1.14-3.58,3.39c-0.15,1.33-0.17,2.68-0.17,4.02c-0.01,52.96-0.01,105.92-0.01,158.88c0,8.82-0.02,17.64,0,26.46
		c0.01,3.49,1.77,6.22,4.83,7.2c1.31,0.42,2.78,0.46,4.17,0.46c32.62,0.02,65.24,0.02,97.86,0.02c12.5,0,24.99,0.01,37.49-0.01
		c4.53-0.01,7.88-2.68,8.01-7C196.83,241.91,196.66,234.29,196.66,226.67z M125.3,197.64H59.74c-1.36,0-2.46-1.1-2.46-2.46
		s1.1-2.46,2.46-2.46h65.56c1.36,0,2.46,1.1,2.46,2.46S126.66,197.64,125.3,197.64z M136.31,178.6H59.64c-1.36,0-2.46-1.1-2.46-2.46
		c0-1.36,1.1-2.46,2.46-2.46h76.68c1.36,0,2.46,1.1,2.46,2.46C138.77,177.5,137.67,178.6,136.31,178.6z M57.28,157.12
		c0-1.36,1.1-2.46,2.46-2.46h62c1.36,0,2.46,1.1,2.46,2.46c0,1.36-1.1,2.46-2.46,2.46h-62C58.38,159.58,57.28,158.48,57.28,157.12z
		 M138.02,140.56H59.74c-1.36,0-2.46-1.1-2.46-2.46s1.1-2.46,2.46-2.46h78.28c1.36,0,2.46,1.1,2.46,2.46
		S139.37,140.56,138.02,140.56z M150.7,121.53H59.74c-1.36,0-2.46-1.1-2.46-2.46c0-1.36,1.1-2.46,2.46-2.46h90.96
		c1.36,0,2.46,1.1,2.46,2.46C153.16,120.43,152.06,121.53,150.7,121.53z"/>
	<path d="M234.08,159.29c-8.22-13.25-23.32-20.23-37.54-17.34c-18.55,3.77-31.26,19.41-31.32,38.53c-0.02,6.87,1.49,13.2,4.56,19.13
		c10.85,20.97,37.03,26.81,55.52,12.38C240.82,199.88,244.72,176.46,234.08,159.29z M205.72,201.76v4.89h-6.87v-4.89
		c-5.3-0.7-9.89-2.97-13.62-6.52l4.66-5c3.72,3.37,7.91,4.89,12.86,4.89c3.32,0,9.02-1.34,9.02-5.53c0-4.36-7.74-6.05-11.35-7.1
		c-5.88-1.75-13.04-4.42-13.04-11.87c0-6.23,4.6-10.36,11.46-11.35v-5h6.87v5c4.66,0.76,8.96,3.03,11.87,6.34l-4.89,4.83
		c-2.79-3.03-6.69-4.66-10.77-4.66c-3.26,0-7.62,0.93-7.62,4.77c0,3.38,5.76,4.66,9.83,5.82c7.16,2.04,14.49,5.3,14.49,13.04
		C218.64,196.05,213.05,200.71,205.72,201.76z"/>
</g>
</svg>
