<?xml version="1.0" encoding="utf-8"?>
<!-- Generator: Adobe Illustrator 28.1.0, SVG Export Plug-In . SVG Version: 6.00 Build 0)  -->
<svg version="1.1" fill="white" id="Capa_1" xmlns="http://www.w3.org/2000/svg" xmlns:xlink="http://www.w3.org/1999/xlink" x="0px" y="0px"
	 viewBox="0 0 283.46 283.46" style="enable-background:new 0 0 283.46 283.46;" xml:space="preserve">
<path d="M62.83,195.49c0-8.47,0.11-16.95-0.05-25.42c-0.07-3.46,1.1-6.06,3.51-8.45c18.18-18.06,36.31-36.18,54.45-54.29
	c5.1-5.09,10.18-10.18,15.28-15.28c4.48-4.48,7.11-4.5,11.61,0c19.73,19.72,39.44,39.44,59.16,59.16c3.69,3.69,7.36,7.42,11.1,11.07
	c2.05,2,2.96,4.32,2.95,7.19c-0.05,17.09-0.02,34.17-0.03,51.26c-0.01,12.47-9.95,22.72-22.46,22.89c-11.29,0.15-22.59,0-33.89,0.07
	c-1.77,0.01-2.09-0.69-2.08-2.25c0.04-16.95,0.03-33.89,0.03-50.84c0-2.81,0-2.81-2.7-2.81c-12,0-24.01,0.04-36.01-0.04
	c-1.89-0.01-2.38,0.55-2.37,2.38c0.06,16.88,0.04,33.75,0.03,50.63c0,2.9-0.01,2.9-2.94,2.9c-10.59,0-21.18,0.02-31.77-0.01
	c-12.13-0.03-20.91-6.98-23.45-18.55c-0.27-1.23-0.33-2.52-0.34-3.78C62.82,212.72,62.83,204.11,62.83,195.49z"/>
<path d="M189.3,73.33c0.09-0.96,0.21-1.69,0.21-2.42c0.02-3.53-0.01-7.06,0.01-10.59c0.05-6.89,5.37-12.27,12.15-12.34
	c7.02-0.07,12.61,5.3,12.65,12.34c0.06,11.72,0.06,23.44-0.02,35.16c-0.01,2.29,0.69,4.02,2.32,5.63
	c9.84,9.73,19.61,19.53,29.42,29.3c2.17,2.17,4.06,4.51,4.81,7.58c1.18,4.84-0.83,10.07-5.02,12.99c-4.08,2.84-9.92,2.92-13.93,0.06
	c-1.37-0.98-2.62-2.15-3.81-3.35c-26.27-26.25-52.53-52.52-78.79-78.78c-5.93-5.93-8.99-5.95-14.87-0.07
	c-26.57,26.55-53.14,53.1-79.72,79.65c-4.89,4.88-10.14,5.97-15.54,3.29c-5.9-2.93-9.48-11.45-4.57-17.78
	c1.34-1.72,2.78-3.38,4.32-4.93c26.4-26.42,52.82-52.82,79.24-79.22c6.43-6.42,14.19-9.97,23.27-10.07
	c9.24-0.1,17.22,3.31,23.76,9.87c7.72,7.75,15.38,15.55,23.08,23.33C188.39,73.09,188.64,73.1,189.3,73.33z"/>
</svg>
