<?xml version="1.0" encoding="utf-8"?>
<!-- Generator: Adobe Illustrator 28.1.0, SVG Export Plug-In . SVG Version: 6.00 Build 0)  -->
<svg version="1.1" fill="white" id="Capa_1" xmlns="http://www.w3.org/2000/svg" xmlns:xlink="http://www.w3.org/1999/xlink" x="0px" y="0px"
	 viewBox="0 0 283.46 283.46" style="enable-background:new 0 0 283.46 283.46;" xml:space="preserve">
<style type="text/css">
	.st0{fill:#010202;}
</style>
<path d="M141.78,248.06c-58.2,0.21-106.06-47.41-106.37-105.55C35.1,84.59,80.93,37.01,138.73,35.44
	c59.89-1.62,108.15,45.69,109.3,104.02C249.24,200.02,200.6,248.03,141.78,248.06z M151.8,132.3c0-1.09,0-1.92,0-2.75
	c0-12.43-0.04-24.86,0.04-37.28c0.01-1.88-0.54-2.42-2.39-2.38c-5.15,0.12-10.31,0.11-15.46,0c-1.83-0.04-2.42,0.47-2.41,2.37
	c0.08,12.43,0.04,24.86,0.04,37.28c0,0.83,0,1.66,0,2.76c-1.05,0-1.87,0-2.69,0c-12.5,0-25,0.04-37.49-0.04
	c-1.97-0.01-2.73,0.44-2.66,2.56c0.16,4.66,0.15,9.32,0,13.98c-0.06,2.03,0.53,2.64,2.59,2.62c12.57-0.09,25.14-0.05,37.7-0.04
	c0.81,0,1.62,0.07,2.61,0.12c0,14.07,0,27.88,0,41.76c6.78,0,13.37,0,20.24,0c0-14.02,0-27.88,0-41.88c1.13,0,1.97,0,2.81,0
	c12.57,0,25.14-0.03,37.7,0.03c1.63,0.01,2.22-0.43,2.19-2.14c-0.11-4.8-0.14-9.61,0.01-14.4c0.06-2.05-0.56-2.62-2.6-2.6
	c-12.5,0.09-24.99,0.04-37.49,0.04C153.72,132.3,152.9,132.3,151.8,132.3z"/>
</svg>
