<?xml version="1.0" encoding="utf-8"?>
<!-- Generator: Adobe Illustrator 28.2.0, SVG Export Plug-In . SVG Version: 6.00 Build 0)  -->
<svg version="1.1" id="Capa_1" xmlns="http://www.w3.org/2000/svg" xmlns:xlink="http://www.w3.org/1999/xlink" x="0px" y="0px"
	 viewBox="0 0 566.93 566.93" style="enable-background:new 0 0 566.93 566.93;" xml:space="preserve">
<style type="text/css">
	.st0{fill:#E30613;}
	.st1{fill:#222323;}
</style>
<g>
	<path class="st1" d="M245.58,511.65c-44.99,0-89.99-0.21-134.98,0.1c-20.04,0.14-34.5-9.21-45.54-24.84
		c-6.57-9.31-9.49-19.93-9.48-31.41c0.05-88.8,0.02-177.6,0.04-266.4c0.01-30.94,25.17-56.74,56.05-56.88
		c50.78-0.24,101.57-0.09,152.35-0.05c10.23,0.01,18.54,7.12,19.62,16.49c1.16,9.97-4.69,18.72-14.34,21.16
		c-2.12,0.53-4.41,0.52-6.61,0.52c-49,0.03-98.01,0.21-147.01-0.12c-12.18-0.08-22.08,7.75-22.03,22.01
		c0.34,86.87,0.33,173.74-0.01,260.61c-0.05,12.51,8.65,21.71,21.82,21.66c86.87-0.34,173.74-0.33,260.61-0.02
		c13.72,0.05,21.9-9.42,21.83-21.77c-0.27-49.74-0.12-99.49-0.1-149.24c0-9.43,6.71-17.46,15.62-18.91
		c9.26-1.51,18.27,3.6,21.25,12.34c0.84,2.48,1.27,5.22,1.28,7.84c0.07,50.19,0.13,100.38,0.02,150.57
		c-0.06,26.73-17.95,49.27-43.92,55.66c-2.12,0.52-4.39,0.66-6.59,0.66C338.83,511.65,292.21,511.65,245.58,511.65z"/>
	<path class="st1" d="M383.82,117.12c22.55,22.55,44.78,44.78,67.2,67.2c-0.83,0.87-1.91,2.05-3.04,3.18
		c-47.67,47.68-95.48,95.22-142.86,143.18c-6.24,6.31-13.6,7.23-21.15,8.8c-17.53,3.65-35.12,7.05-52.68,10.57
		c-9.77,1.96-15.15-3.55-13.16-13.4c4.12-20.46,8.06-40.96,12.38-61.38c0.7-3.3,2.22-6.96,4.54-9.29
		c48.91-49.17,97.98-98.18,147.02-147.21C382.69,118.14,383.35,117.56,383.82,117.12z"/>
</g>
<path class="st1" d="M471.91,162.86L404.25,95.2l25.71-25.71c18.69-18.69,48.98-18.69,67.66,0l0,0c18.69,18.69,18.69,48.98,0,67.66
	L471.91,162.86z"/>
</svg>
