<?xml version="1.0" encoding="utf-8"?>
<!-- Generator: Adobe Illustrator 28.2.0, SVG Export Plug-In . SVG Version: 6.00 Build 0)  -->
<svg version="1.1" id="Capa_1" xmlns="http://www.w3.org/2000/svg" xmlns:xlink="http://www.w3.org/1999/xlink" x="0px" y="0px"
	 viewBox="0 0 566.93 566.93" style="enable-background:new 0 0 566.93 566.93;" xml:space="preserve">
<style type="text/css">
	.st0{fill:#E30613;}
	.st1{fill:#222323;}
</style>
<g>
	<path class="st0" d="M185.8,514.81c-4.85-2.59-10.19-4.55-14.43-7.91c-6.88-5.46-9.09-13.54-9.75-22.05
		c-1.89-24.29-3.72-48.58-5.69-72.87c-2.25-27.73-4.66-55.45-6.91-83.18c-1.97-24.28-3.79-48.58-5.72-72.87
		c-0.99-12.44-1.98-24.89-3.14-37.31c-0.79-8.43,4-14.36,12.39-14.89c1.05-0.07,2.11-0.06,3.16-0.06c85.23,0,170.45-0.01,255.68,0
		c11.88,0,16.74,5.49,15.44,17.21c-0.43,3.88-0.67,7.79-0.99,11.69c-1.7,20.83-3.4,41.67-5.1,62.5
		c-1.69,20.68-3.41,41.37-5.09,62.05c-1.62,19.94-3.21,39.87-4.82,59.81c-1.71,21.13-3.42,42.27-5.18,63.4
		c-0.36,4.33-0.42,8.8-1.58,12.93c-2.73,9.7-8.93,16.5-18.6,19.92c-1.22,0.43-2.36,1.07-3.54,1.62
		C316.55,514.81,251.18,514.81,185.8,514.81z M269.83,360.72c0,27.69,0,55.39,0,83.08c0,9.33-0.13,18.67,0.04,27.99
		c0.19,9.72,9.01,16.11,18.01,13.27c6.65-2.1,9.75-7.26,9.75-16.43c0.01-71.94,0.01-143.89-0.02-215.83c0-2.09-0.15-4.22-0.55-6.27
		c-0.97-4.99-4.02-8.35-8.76-10.02c-9.49-3.36-18.45,3.41-18.46,14.04C269.8,287.27,269.83,323.99,269.83,360.72z M339.23,463.43
		c0.07,0.01,0.14,0.01,0.21,0.02c-0.2,2.25-0.49,4.49-0.6,6.74c-0.27,5.85,1.69,10.68,6.92,13.71c9.52,5.52,20.25-1.18,20.85-12.78
		c0.91-17.73,1.98-35.45,3.02-53.17c1.38-23.43,2.79-46.85,4.2-70.28c1.1-18.32,2.26-36.64,3.3-54.96
		c0.83-14.57,1.72-29.14,2.18-43.72c0.23-7.38-5.81-13.11-13.12-13.4c-7.07-0.28-13.63,5.33-14.11,12.49
		c-1.3,19.36-2.47,38.74-3.6,58.11c-1.35,22.98-2.56,45.97-3.92,68.95C342.84,404.57,341.02,434,339.23,463.43z M228.93,472.86
		c-0.62-11.16-1.11-20.93-1.72-30.69c-1.98-31.53-4.07-63.06-6.01-94.6c-1.95-31.69-3.76-63.38-5.69-95.07
		c-0.15-2.54-0.42-5.15-1.18-7.56c-1.86-5.96-8.49-10.07-14.43-9.25c-6.98,0.96-12.41,6.49-12.23,13.42
		c0.27,10.37,1.1,20.73,1.72,31.09c1.28,21.48,2.56,42.96,3.89,64.43c1.38,22.23,2.84,44.45,4.21,66.67
		c1.26,20.42,2.39,40.86,3.73,61.28c0.51,7.81,7.15,13.72,14.41,13.3C223.21,485.43,228.84,479.33,228.93,472.86z"/>
	<path class="st0" d="M283.49,175.91c-54.95,0-109.91,0-164.86,0c-12.77,0-17.44-6.49-13.42-18.61c2.45-7.41,4.87-14.82,7.38-22.21
		c3.37-9.91,9.38-14.21,19.94-14.21c100.72-0.02,201.44-0.02,302.17,0c10.3,0,16.33,4.27,19.67,13.91
		c2.8,8.08,5.52,16.19,8.12,24.33c3.14,9.85-1.95,16.76-12.34,16.77C394.6,175.92,339.04,175.91,283.49,175.91z"/>
	<path class="st0" d="M245.09,80.5c0,4.06,0,8.06,0,12.37c-9.59,0-18.68,0-29.1,0c0.87-8.12,0.8-16.17,2.78-23.69
		c2.69-10.21,13.15-16.97,24.13-17c26.95-0.08,53.9-0.07,80.84-0.01c13.1,0.03,23.7,8.4,25.82,21.3c1.03,6.25,0.18,12.8,0.18,19.47
		c-8.95,0-17.92,0-27.3,0c0-4.08,0-8.08,0-12.44C296.55,80.5,271.07,80.5,245.09,80.5z"/>
</g>
</svg>
