<?xml version="1.0" encoding="utf-8"?>
<!-- Generator: Adobe Illustrator 28.0.0, SVG Export Plug-In . SVG Version: 6.00 Build 0)  -->
<svg version="1.1" id="Capa_1" xmlns="http://www.w3.org/2000/svg" xmlns:xlink="http://www.w3.org/1999/xlink" x="0px" y="0px"
	 viewBox="0 0 794.33 591.43" style="enable-background:new 0 0 794.33 591.43;" xml:space="preserve">
<style type="text/css">
	.st0{display:none;fill:#0d2437;}
	.st1{fill:#0d2437;}
	.st2{fill:#0d2437;}
	.st3{fill:#0d2437;stroke:#0d2437;stroke-width:7;stroke-miterlimit:10;}
	.st4{fill:none;stroke:#FFFFFF;stroke-width:12;stroke-miterlimit:10;}
	.st5{fill:#0d2437;stroke:#0d2437;stroke-width:5;stroke-linecap:round;stroke-linejoin:round;stroke-miterlimit:10;}
</style>
<g>
	<path class="st1" d="M567.23,86c-16.09-15.71-31.98-31.62-47.7-47.69c-3.97-4.06-8.18-5.65-13.78-5.64
		c-68.39,0.12-136.77,0.08-205.15,0.08h-7.52l-18.53,0.34c-14.69,0-28.43-0.09-42.16,0.03c-6.76,0.05-9.84,3.24-10.02,9.9
		c-0.07,2.61-0.01,5.2-0.01,7.81V85.2c-13.27,0-25.88-0.01-38.47,0c-11.51,0-13.78,2.25-13.78,13.58v421.45
		c0,11.36,2.36,13.74,13.65,13.74H403c3.35-6.03,6.72-12.09,10.1-18.18H188.4V103.72h260.38v5.56c0,12.26-0.04,24.53,0.02,36.8
		c0.04,7.57,3.29,10.82,10.94,10.86c12.26,0.08,24.53,0.01,36.8,0.03c1.82,0,3.63,0.15,5.73,0.25v261.45
		c2.04-2.03,4.06-4.06,6.07-6.09c1.09-1.1,1.89-1.34,3.45-0.74c3.16,1.24,6.14,1.39,8.89,0.52v-7.51c-1.22,0.85-2.58,1.35-4.18,1.25
		c-2.67-0.16-4.74-1.45-5.82-3.96c-1.06-2.48-0.76-4.84,0.89-7c0.32-0.41,0.7-0.77,1.07-1.14c2.67-2.67,5.35-5.35,8.03-8.03v-9.6
		c0-74.38,0-148.75,0.12-223.13c0.01-6.46-1.85-11.18-6.49-15.68c-15.86-15.41-31.47-31.07-46.93-46.88
		c-4.11-4.22-8.5-5.83-14.3-5.82c-68.39,0.13-136.77,0.08-205.15,0.08h-7.12V51.55h260.13v5.74c0,12.26-0.05,24.53,0.03,36.78
		c0.04,7.67,3.16,10.7,10.93,10.72c14.08,0.05,28.15,0.02,42.51,0.02v247.44c2.38-2.38,4.75-4.75,7.13-7.13
		c0.48-0.47,0.98-0.91,1.4-1.29c3.15,3.15,6.23,6.22,9.42,9.4c-0.32,0.36-0.67,0.83-1.06,1.23c-5.63,5.63-11.27,11.25-16.89,16.88
		v9.55c3.81-3.81,7.62-7.62,11.43-11.44c0.58-0.58,1.08-1.25,1.6-1.86c1.86,1.86,3.7,3.69,5.51,5.5V344
		c-0.01-81.25-0.01-162.49,0.1-243.74C573.04,94.44,571.44,90.1,567.23,86z M467.19,118.43c6.55,6.61,13.21,13.33,19.8,19.98h-19.8
		V118.43z M519.35,86.32V64.67c7.46,7.46,14.38,14.37,21.66,21.66H519.35z M554.39,463.57h-33.72V447.3
		c-6.14,6.14-12.28,12.27-18.41,18.4v50.1H435.1c2.68,2.69,5.38,5.39,8.09,8.12c-6.02,3.35-12.05,6.7-18.08,10.05h82.02
		c1.11,0,2.24,0.03,3.35-0.01c6.66-0.21,9.88-3.28,9.97-10c0.13-10.59,0.04-21.19,0.04-31.78v-10.41c13.9,0,27.05,0.02,40.2-0.01
		c9.26-0.02,11.96-2.73,11.97-11.91c0.02-13.16,0.01-26.33,0.01-40.21l0.26-18.83v-15.74c-6.18,6.17-12.36,12.36-18.54,18.53V463.57
		z"/>
	<path class="st1" d="M345.71,236.36c-32.13,0-64.26-0.03-96.39,0.03c-4.12,0.01-7.8-0.6-10.09-4.48
		c-3.16-5.38-0.03-12.06,6.28-13.27c1.62-0.31,3.33-0.2,5-0.2c63.14-0.01,126.29-0.01,189.43-0.01c1.11,0,2.23-0.05,3.34,0.02
		c5.69,0.36,9.33,3.89,9.31,9.02c-0.02,5.11-3.69,8.74-9.39,8.84c-8.73,0.15-17.46,0.05-26.19,0.05
		C393.26,236.36,369.48,236.36,345.71,236.36z"/>
	<path class="st1" d="M345.71,294.35c-32.13,0-64.26-0.03-96.39,0.03c-4.12,0.01-7.81-0.59-10.09-4.48
		c-3.16-5.38-0.03-12.05,6.29-13.27c1.62-0.31,3.33-0.21,5-0.21c63.14-0.01,126.29-0.01,189.43-0.01c1.11,0,2.23-0.05,3.34,0.02
		c5.69,0.37,9.32,3.9,9.31,9.03c-0.02,5.11-3.69,8.74-9.39,8.83c-9.47,0.14-18.94,0.05-28.41,0.05
		C391.77,294.35,368.74,294.35,345.71,294.35z"/>
	<path class="st1" d="M345.69,352.33c-32.13,0-64.26-0.03-96.39,0.03c-4.6,0.01-8.52-0.82-10.54-5.5
		c-2.29-5.3,0.88-11.12,6.78-12.24c1.8-0.34,3.7-0.22,5.55-0.22c62.77-0.01,125.55-0.01,188.32,0c1.67,0,3.36-0.1,5.01,0.11
		c5.16,0.66,8.47,4.6,8.15,9.53c-0.3,4.69-3.72,8.14-8.83,8.21c-11.51,0.17-23.03,0.07-34.54,0.08
		C388.03,352.34,366.86,352.33,345.69,352.33z"/>
	<path class="st1" d="M345.66,410.32c-32.13,0-64.26-0.04-96.39,0.04c-4.88,0.01-8.89-1.05-10.75-6.03
		c-1.92-5.12,1.38-10.65,7.04-11.71c1.8-0.34,3.7-0.22,5.55-0.23c62.77-0.01,125.54-0.01,188.32,0c1.67,0,3.36-0.1,5.01,0.12
		c5.16,0.68,8.45,4.62,8.13,9.55c-0.31,4.69-3.74,8.12-8.85,8.18c-12.81,0.15-25.63,0.07-38.44,0.07
		C385.41,410.32,365.54,410.32,345.66,410.32z"/>
	<path class="st1" d="M345.68,468.37c-31.39,0-62.77,0-94.16,0c-1.86,0-3.73,0.1-5.56-0.14c-4.66-0.61-7.45-3.42-7.85-8.02
		c-0.43-4.93,2.24-8.1,6.9-9.43c1.56-0.44,3.31-0.33,4.97-0.33c63.51-0.01,127.03-0.02,190.54,0.02c2.19,0,4.52,0.12,6.54,0.86
		c4.2,1.53,5.91,4.93,5.41,9.28c-0.48,4.17-3.03,6.73-7.09,7.52c-1.98,0.39-4.07,0.23-6.11,0.23
		C408.08,468.37,376.88,468.37,345.68,468.37z"/>
	<path class="st1" d="M317.83,160.44c22.28,0,44.55,0,66.83,0.01c1.67,0,3.39-0.16,4.99,0.2c4.75,1.06,7.62,4.18,7.45,9.03
		c-0.17,4.78-3.01,7.87-7.94,8.56c-1.46,0.21-2.96,0.13-4.45,0.13c-44.74,0.01-89.47,0.01-134.21,0c-1.3,0-2.61,0.04-3.9-0.07
		c-5-0.46-8.41-3.91-8.58-8.56c-0.17-4.84,3.35-8.69,8.53-9.22c1.47-0.15,2.97-0.06,4.45-0.06
		C273.28,160.44,295.55,160.44,317.83,160.44z"/>
	<g>
		<path class="st5" d="M522.24,403.51c-0.5,0.5-1.03,0.96-1.57,1.34v7.51c2.19-0.68,4.24-1.98,6.14-3.88
			c9.19-9.19,18.39-18.39,27.58-27.59v-9.55C543.67,382.06,532.95,392.78,522.24,403.51z M443.05,468.37
			c-7.93,7.92-15.83,15.85-23.75,23.76c-0.89,0.89-1.78,1.86-2.39,2.96c-3.85,6.9-7.69,13.81-11.53,20.71h7.72
			c2.62-4.71,5.25-9.43,7.87-14.18c4.77,4.79,9.43,9.47,14.12,14.18h10.67c-6.65-6.65-13.39-13.38-20.06-20.03l42.31-42.31
			c7.76,7.76,15.66,15.65,23.44,23.44c-12.92,12.92-25.99,25.99-38.91,38.91h9.96c13.26-13.24,26.51-26.48,39.76-39.74v-10.36
			c-1.85,1.86-3.72,3.72-5.57,5.57c-7.61-7.6-15.51-15.49-23.48-23.45c0.37-0.38,0.87-0.93,1.4-1.45
			c9.23-9.23,18.46-18.45,27.66-27.7v-9.49c-16.59,16.54-33.15,33.1-49.71,49.66C449.38,462.02,446.21,465.19,443.05,468.37z
			 M607.07,321.12h-2.26c-0.98,0.92-1.98,1.8-2.92,2.75c-5.43,5.41-10.84,10.83-16.26,16.24c-0.48,0.48-1.01,0.93-1.38,1.48
			c-1,1.47-1.01,3.01,0.24,4.32c1.34,1.37,2.94,1.41,4.49,0.33c0.67-0.47,1.2-1.12,1.79-1.71c5.04-5.04,10.07-10.08,14.98-15.01
			c3.23,3.23,6.35,6.35,9.31,9.3c-7.78,7.76-15.66,15.65-23.92,23.9c-0.37-0.51-0.77-1.27-1.34-1.84
			c-5.62-5.64-11.24-11.27-16.87-16.88l-6.38-6.38c-2.97-2.97-4.14-2.97-7.11,0l-5.05,5.05c-9.59,9.58-19.15,19.14-28.73,28.71
			c-1.67,1.67-3.34,3.34-5.01,4.99c-4.39,4.38-8.78,8.77-13.14,13.17c-4.16,4.19-5.34,9.17-3.24,14.68c0.65,1.72,0.34,2.6-0.86,3.8
			c-0.38,0.38-0.77,0.77-1.16,1.16c-16.59,16.54-33.15,33.1-49.71,49.66c-3.17,3.17-6.35,6.35-9.51,9.52
			c-7.93,7.92-15.83,15.85-23.75,23.76c-0.89,0.89-1.78,1.86-2.39,2.96c-3.85,6.9-7.69,13.81-11.53,20.71
			c-3.38,6.06-6.75,12.13-10.13,18.18c-0.48,0.86-0.97,1.73-1.45,2.6c-0.14,0.25-0.26,0.5-0.36,0.74l-0.01,0.02
			c-0.72,1.77-0.29,3.21,1.21,4.65c2.65,2.54,5.21,5.19,7.82,7.79c1.91,1.92,2.82,2.45,4.53,1.84l0.68-0.27
			c0.38-0.17,0.8-0.39,1.27-0.65c10.03-5.56,20.08-11.11,30.1-16.71c3.21-1.79,6.42-3.58,9.63-5.38c1.54-0.87,3.02-1.97,4.27-3.23
			c3.2-3.18,6.38-6.38,9.58-9.58c13.26-13.24,26.51-26.48,39.76-39.74c6.14-6.13,12.28-12.26,18.41-18.4
			c11.24-11.23,22.49-22.48,33.72-33.71c5.95-5.95,11.92-11.92,17.87-17.87c0.22-0.22,0.45-0.45,0.67-0.67
			c9.17-9.18,18.35-18.34,27.53-27.54c2.38-2.39,2.39-3.95,0.03-6.31c-1.32-1.31-2.69-2.55-4.2-3.98c2.22-2.18,4.17-4.05,6.06-5.95
			c7.14-7.18,14.25-14.37,21.39-21.57v-2.26C618.18,332.24,612.62,326.68,607.07,321.12z M511.57,395.15
			c0.32-0.41,0.7-0.77,1.07-1.14c2.67-2.67,5.35-5.35,8.03-8.03c11.25-11.25,22.49-22.49,33.73-33.73c2.38-2.38,4.75-4.75,7.13-7.13
			c0.48-0.47,0.98-0.91,1.4-1.29c3.15,3.15,6.23,6.22,9.42,9.4c-0.32,0.36-0.67,0.83-1.06,1.23c-5.63,5.63-11.27,11.25-16.89,16.88
			c-10.72,10.72-21.44,21.44-32.15,32.17c-0.5,0.5-1.03,0.96-1.57,1.34c-1.22,0.85-2.58,1.35-4.18,1.25
			c-2.67-0.16-4.74-1.45-5.82-3.96C509.61,399.67,509.91,397.31,511.57,395.15z M425.11,533.97c-6.14,3.41-12.29,6.83-18.44,10.24
			c-2.02-2.04-3.95-3.99-5.99-6.06c0.77-1.39,1.55-2.78,2.32-4.18c3.35-6.03,6.72-12.09,10.1-18.18c2.62-4.71,5.25-9.43,7.87-14.18
			c4.77,4.79,9.43,9.47,14.12,14.18c2.68,2.69,5.38,5.39,8.09,8.12C437.17,527.27,431.14,530.62,425.11,533.97z M452.54,515.79
			c-1.13,1.13-2.27,2.27-3.39,3.39c-1.12-1.12-2.26-2.26-3.39-3.39c-6.65-6.65-13.39-13.38-20.06-20.03l42.31-42.31
			c7.76,7.76,15.66,15.65,23.44,23.44C478.53,489.81,465.47,502.87,452.54,515.79z M572.93,395.07
			c-6.18,6.17-12.36,12.36-18.54,18.53c-11.24,11.24-22.49,22.48-33.72,33.7c-6.14,6.14-12.28,12.27-18.41,18.4
			c-1.85,1.86-3.72,3.72-5.57,5.57c-7.61-7.6-15.51-15.49-23.48-23.45c0.37-0.38,0.87-0.93,1.4-1.45
			c9.23-9.23,18.46-18.45,27.66-27.7c2.04-2.03,4.06-4.06,6.07-6.09c1.09-1.1,1.89-1.34,3.45-0.74c3.16,1.24,6.14,1.39,8.89,0.52
			c2.19-0.68,4.24-1.98,6.14-3.88c9.19-9.19,18.39-18.39,27.58-27.59c3.81-3.81,7.62-7.62,11.43-11.44c0.58-0.58,1.08-1.25,1.6-1.86
			c1.86,1.86,3.7,3.69,5.51,5.5c3.78,3.76,7.44,7.4,11.01,10.98C580.27,387.73,576.61,391.41,572.93,395.07z"/>
		<path class="st5" d="M393.44,537.31l-9.81,17.84c-1.09,1.98,0.84,4.25,2.97,3.51l19.74-6.81l1.31-0.97L393.44,537.31z"/>
	</g>
</g>
</svg>
