<?xml version="1.0" encoding="utf-8"?>
<!-- Generator: Adobe Illustrator 28.0.0, SVG Export Plug-In . SVG Version: 6.00 Build 0)  -->
<svg version="1.1" id="Capa_1" xmlns="http://www.w3.org/2000/svg" xmlns:xlink="http://www.w3.org/1999/xlink" x="0px" y="0px"
	 viewBox="0 0 794.33 591.43" style="enable-background:new 0 0 794.33 591.43;" xml:space="preserve">
<style type="text/css">
	.st0{display:none;fill:#0d2437;}
	.st1{fill:#0d2437;}
	.st2{fill:#0d2437;}
	.st3{fill:#0d2437;stroke:#0078B1;stroke-width:7;stroke-miterlimit:10;}
	.st4{fill:none;stroke:#0d2437;stroke-width:12;stroke-miterlimit:10;}
	.st5{fill:#0078B1;stroke:#0078B1;stroke-width:5;stroke-linecap:round;stroke-linejoin:round;stroke-miterlimit:10;}
</style>
<g>
	<path class="st1" d="M137,143.71c0.62-1.9,1.29-3.78,1.86-5.69c5.43-18.04,21.68-30.59,40.45-30.93
		c11.71-0.21,23.44-0.1,35.16-0.05c5.54,0.02,9,2.94,9.12,7.44c0.12,4.68-3.47,7.79-9.26,7.81c-11.38,0.06-22.76-0.1-34.14,0.06
		c-15.65,0.22-27.83,12.23-27.85,27.89c-0.1,82.2-0.05,164.4-0.04,246.6c0,0.66,0.11,1.32,0.19,2.33c163.52,0,326.96,0,491.03,0
		c0-1.81,0-3.62,0-5.42c0-80.16,0-160.33,0-240.49c0-19.59-11.38-30.94-31-30.95c-21.4-0.01-42.8,0-64.2,0
		c-1.36,0-2.72,0.07-4.07-0.03c-4.64-0.36-7.83-3.63-7.7-7.82c0.12-4.01,3.2-7.34,7.62-7.35c25.13-0.07,50.31-0.84,75.39,0.34
		c22.7,1.06,39.21,20.63,39.23,44.17c0.06,68.27,0.02,136.55,0.02,204.82c0,28.02,0.03,56.05-0.01,84.07
		c-0.03,27.2-18.52,45.63-45.81,45.65c-46.37,0.03-92.73,0.01-139.1,0.01c-1.86,0-3.71,0-6.52,0c3.34,6.71,6.25,12.93,9.57,18.92
		c0.55,0.99,2.86,1.32,4.39,1.41c7.78,0.45,15.71-0.1,23.33,1.2c18.18,3.11,32.4,19.48,34.12,37.69c0.47,4.92-0.36,8.97-4.32,12.11
		c-91.05,0-182.09,0-273.14,0c-3.98-3.13-4.79-7.18-4.32-12.1c1.72-18.2,15.94-34.57,34.09-37.7c7.45-1.29,15.21-0.72,22.81-1.24
		c1.54-0.11,3.89-0.94,4.36-2.06c2.4-5.74,4.3-11.69,6.61-18.23c-2.44,0-4.24,0-6.04,0c-45.84,0-91.67,0.06-137.51-0.03
		c-21.65-0.04-38.36-13.44-43.38-34.41c-0.19-0.78-0.63-1.5-0.95-2.25C137,347.55,137,245.63,137,143.71z M152.3,415.03
		c0,9.42-0.1,18.55,0.02,27.67c0.21,15.93,12.2,28.11,28.15,28.11c145,0.07,289.99,0.04,434.99,0.04c0.17,0,0.34-0.01,0.51-0.01
		c13.94-0.4,25.82-10.35,27.13-24.21c0.98-10.38,0.19-20.92,0.19-31.6C479.69,415.03,316.4,415.03,152.3,415.03z M460.34,506.53
		c-3.28-6.57-6.18-12.64-9.38-18.54c-0.53-0.98-2.4-1.76-3.66-1.76c-34.46-0.09-68.92-0.09-103.38-0.01c-1.11,0-2.91,0.65-3.23,1.46
		c-2.39,6.06-4.49,12.23-6.88,18.9c5.62,0,10.37-0.24,15.09,0.07c4.27,0.28,6.93,2.95,7.1,7.25c0.17,4.33-2.37,6.93-6.55,7.79
		c-1.31,0.27-2.71,0.13-4.06,0.13c-15.11,0.01-30.22-0.13-45.32,0.05c-11.11,0.13-19.41,5.32-24.81,15.03
		c-0.83,1.49-1.28,3.2-2.02,5.11c83.46,0,166.08,0,249.05,0c-0.3-1.2-0.42-2.18-0.78-3.07c-4.44-10.81-14.57-17.11-27.58-17.12
		c-36.16-0.02-72.32,0.01-108.47-0.03c-5.53-0.01-8.93-2.99-8.97-7.55c-0.04-4.61,3.31-7.61,8.82-7.7
		c5.09-0.08,10.19-0.02,15.28-0.02C420.24,506.53,439.9,506.53,460.34,506.53z"/>
	<path class="st1" d="M516.13,214.03c20.76,0,40.78-0.01,60.8,0c27.93,0.02,46.18,18.3,46.21,46.26c0.02,16.3,0.04,32.61-0.01,48.91
		c-0.05,16.41-10.71,27.07-27.11,27.11c-14.56,0.04-29.12,0.01-44.22,0.01c0,5.83,0.05,11.21-0.01,16.6
		c-0.17,15.16-10.93,26.16-25.99,26.17c-85.25,0.06-170.5,0.06-255.76,0c-15.05-0.01-25.99-11.04-26-26.15
		c-0.05-96.97-0.05-193.94,0-290.91c0.01-15.41,10.93-26.33,26.32-26.34c73.03-0.05,146.05-0.04,219.08-0.01
		c16.01,0.01,26.67,10.82,26.68,27.01c0.04,48.23,0.01,96.46,0.01,144.69C516.13,209.41,516.13,211.41,516.13,214.03z
		 M501.85,363.85c-0.35-5.76-0.96-11.14-0.96-16.52c-0.06-94.09-0.04-188.17-0.04-282.26c0-11.09-3.06-14.1-14.3-14.1
		c-71.16,0-142.32,0-213.48,0c-10.5,0-13.77,3.22-13.77,13.61c0,95.1,0,190.21,0,285.31c0,10.78,3.17,13.95,13.94,13.95
		c74.56,0,149.11,0,223.67,0C498.74,363.85,500.58,363.85,501.85,363.85z M551.8,321.03c15.73,0,30.67,0.11,45.6-0.05
		c6.53-0.07,10.4-4.37,10.43-11.26c0.08-17.32,0.12-34.63,0-51.95c-0.11-15.99-12.35-28.37-27.85-28.44
		c-15.74-0.07-28.02,12.37-28.16,28.64c-0.08,9.85-0.02,19.69-0.02,29.54C551.8,298.51,551.8,309.51,551.8,321.03z M516.13,229.54
		c0,2.26,0,4.1,0,5.94c0,38.03,0,76.06,0,114.09c0,1.53-0.07,3.06,0.06,4.58c0.49,5.52,4.71,9.58,9.97,9.66
		c5.45,0.08,9.85-4.1,10.29-9.87c0.12-1.52,0.05-3.05,0.05-4.58c0-26.31,0.15-52.63-0.06-78.94c-0.11-14.34-0.41-28.58,10.25-40.88
		C536.04,229.54,526.44,229.54,516.13,229.54z"/>
	<path class="st1" d="M398.44,435.19c11.02,0,22.04-0.02,33.05,0.01c6.06,0.02,9.46,2.69,9.6,7.4c0.14,4.93-3.37,7.86-9.64,7.87
		c-22.37,0.03-44.75,0.03-67.12,0c-6.05-0.01-9.45-2.69-9.59-7.41c-0.15-4.94,3.36-7.84,9.64-7.86
		C375.72,435.17,387.08,435.19,398.44,435.19z"/>
	<path class="st1" d="M471.28,198.98c-0.09,50.47-41.42,91.58-91.96,91.49c-50.47-0.1-91.57-41.42-91.48-91.97
		c0.09-50.48,41.39-91.56,91.96-91.47C430.28,107.12,471.38,148.43,471.28,198.98z M456,199.06c0.12-42.21-34.03-76.64-76.11-76.74
		c-42.23-0.11-76.64,34.01-76.75,76.11c-0.11,42.21,34.04,76.65,76.11,76.76C421.44,275.29,455.88,241.14,456,199.06z"/>
	<path class="st1" d="M379.42,86.64c-19,0-38,0-56.99,0c-1.02,0-2.04,0.03-3.05-0.01c-5.15-0.2-8.41-3.1-8.48-7.52
		c-0.07-4.46,3.17-7.71,8.25-7.71c40.2-0.06,80.4-0.06,120.6-0.01c5.16,0.01,8.42,3.07,8.48,7.49c0.07,4.62-3.29,7.72-8.76,7.74
		C419.45,86.67,399.44,86.64,379.42,86.64z"/>
	<path class="st1" d="M437.59,343.47c-11.37,0-22.73,0.03-34.1-0.01c-5.96-0.02-9.49-2.81-9.62-7.45c-0.13-4.82,3.54-7.81,9.75-7.82
		c22.39-0.02,44.79-0.02,67.18,0c5.96,0.01,9.5,2.8,9.62,7.44c0.13,4.82-3.55,7.81-9.75,7.83
		C459.64,343.49,448.61,343.47,437.59,343.47z"/>
	<path class="st1" d="M403.08,170.12c-1.15,1.51-2.33,4.62-4.36,5.34c-2.47,0.88-5.75,0.11-8.49-0.65
		c-1.82-0.51-3.14-2.64-4.95-3.38c-5.17-2.09-10.87,0.57-12.99,5.75c-2.09,5.12,0.29,10.88,5.49,13.08
		c1.39,0.59,2.93,0.85,4.39,1.28c9.8,2.92,16.07,9.3,18.08,19.35c1.97,9.81-1.01,18.4-8.85,24.46c-3.77,2.91-5.07,5.75-4.62,10.14
		c0.47,4.67-1.59,7.98-6.3,9.04c-4.7,1.06-8.91-2.84-8.82-8.58c0.05-3.52-0.92-5.11-4.44-5.92c-2.55-0.58-5.03-2.09-7.15-3.71
		c-3.42-2.61-4.08-6.21-1.87-9.93c2.14-3.59,5.54-4.24,9.31-3.01c1.43,0.47,2.69,1.44,4.1,1.99c5.27,2.06,10.84-0.32,13.05-5.49
		c2.18-5.11-0.08-10.79-5.34-13.1c-1.69-0.74-3.56-1.08-5.32-1.67c-10.15-3.4-16.22-10.55-17.59-20.99
		c-1.35-10.25,2.57-18.73,11.38-24.39c2.9-1.86,4.16-3.72,4.07-7.22c-0.17-6.46,2.76-9.88,7.67-9.84c4.73,0.03,7.4,3.16,7.43,9.48
		c0.01,2.89,1.39,3.69,3.62,5.1c4.27,2.71,7.9,6.43,11.73,9.81C402.72,167.44,402.65,168.34,403.08,170.12z"/>
</g>
</svg>
