<?xml version="1.0" encoding="utf-8"?>
<!-- Generator: Adobe Illustrator 28.0.0, SVG Export Plug-In . SVG Version: 6.00 Build 0)  -->
<svg version="1.1" id="Capa_1" xmlns="http://www.w3.org/2000/svg" xmlns:xlink="http://www.w3.org/1999/xlink" x="0px" y="0px"
	 viewBox="0 0 794.33 591.43" style="enable-background:new 0 0 794.33 591.43;" xml:space="preserve">
<style type="text/css">
	.st0{display:none;fill:#0d2437;}
	.st1{fill:#0d2437;}
	.st2{fill:#0d2437;}
	.st3{fill:#FFFFFF;stroke:#0078B1;stroke-width:7;stroke-miterlimit:10;}
	.st4{fill:none;stroke:#FFFFFF;stroke-width:12;stroke-miterlimit:10;}
	.st5{fill:#0078B1;stroke:#0078B1;stroke-width:5;stroke-linecap:round;stroke-linejoin:round;stroke-miterlimit:10;}
</style>
<rect x="151.81" y="21.86" class="st0" width="493.71" height="569.57"/>
<g>
	<path class="st1" d="M496.33,559.49c-11.06,0-22.11,0-33.17,0c-90.41-0.01-180.82-0.03-271.22-0.05c-0.88,0-1.76,0.01-2.63-0.05
		c-4.98-0.38-7.68-2.98-8.21-7.94c-0.11-1.04-0.06-2.1-0.06-3.16c0-134.85,0-269.7,0-404.55c0-0.7-0.01-1.41,0-2.11
		c0.15-5.71,2.85-8.74,8.56-8.83c12.46-0.21,24.93-0.15,37.39-0.2c1.12,0,2.24,0,3.63,0c0-1.29,0-2.24,0-3.19
		c0-10.89-0.02-21.77,0.02-32.66c0.01-2.28,0.15-4.56,0.43-6.82c0.49-4.07,2.56-6.1,6.63-6.59c1.91-0.23,3.85-0.36,5.77-0.37
		c11.06-0.03,22.12-0.02,33.18-0.02c1.03,0,2.05,0,3.56,0c0-2.76,0-5.19,0-7.63c0.01-9.92,0.03-19.84,0.05-29.76
		c0-0.44-0.01-0.88,0-1.32c0.18-8.43,2.75-10.96,11.16-10.95c86.19,0.03,172.39,0.08,258.58,0.08c4.76,0,8.66,1.57,12.01,4.95
		c15.34,15.45,30.72,30.85,46.13,46.23c3.57,3.57,5.15,7.85,5.16,12.8c0.03,18.35,0.08,36.7,0.09,55.05
		c0.03,78.49,0.05,156.97,0.07,235.46c0,0.95,0,1.91,0,3.49c-0.69-0.91-1.04-1.33-1.36-1.78c-4.73-6.63-9.52-13.21-14.13-19.92
		c-0.91-1.33-1.56-3.15-1.57-4.75c-0.11-12.11-0.02-24.23-0.02-36.34c0.03-72.96,0.05-145.91,0.08-218.86c0-7.43-0.62-8-8.14-7.98
		c-10.09,0.03-20.19,0.02-30.28,0.02c-1.05,0-2.11-0.02-3.16-0.07c-6.81-0.31-9.8-3.16-9.9-9.98c-0.16-11.24-0.06-22.47-0.12-33.71
		c-0.01-2.35-0.23-4.7-0.36-7.18c-82.3,0-164.33,0-246.53,0c0,10.61,0,21.09,0,31.93c1.28,0,2.48,0,3.68,0
		c65.3-0.02,130.61,0.02,195.91-0.15c7.29-0.02,12.87,2.31,17.94,7.54c13.87,14.3,28.02,28.34,42.22,42.31
		c4.37,4.3,6.38,9.14,6.36,15.23c-0.15,61.98-0.2,123.96-0.27,185.94c0,3.05,0,6.09,0,9.39c-4.21-1.74-8.12-3.45-12.09-4.98
		c-5.24-2.02-5.26-1.96-5.26-7.62c0-58.38,0-116.76,0-175.15c0-1.22,0-2.43,0-4.1c-1.2,0-2.2,0-3.21,0c-12.2-0.01-24.4,0-36.6-0.04
		c-1.48,0-2.99-0.11-4.44-0.39c-3.78-0.73-6.06-2.88-6.24-6.75c-0.35-7.8-0.34-15.61-0.41-23.42c-0.06-6.66-0.01-13.31-0.01-20.36
		c-1.17,0-2.11,0-3.04,0c-80.49,0-160.98,0.01-241.47-0.05c-2.42,0-3.13,0.66-3.1,3.08c0.13,8.78,0.05,17.56,0.06,26.34
		c0,0.85,0.08,1.71,0.13,2.78c1.36,0,2.49,0,3.61,0c65.04-0.02,130.08,0.01,195.12-0.14c7.82-0.02,13.96,2.58,19.41,8.16
		c13.67,14.01,27.56,27.81,41.49,41.56c4.46,4.4,6.61,9.4,6.6,15.7c-0.11,43.37-0.08,86.74-0.1,130.11c0,0.94,0,1.89,0,2.96
		c-5.85,0.36-11.41,0.7-17.26,1.07c0-43.57,0-87.07,0-130.88c-1.28-0.06-2.29-0.14-3.3-0.14c-12.2-0.01-24.4,0-36.6-0.05
		c-1.65-0.01-3.33-0.18-4.95-0.52c-3.17-0.67-5.04-2.78-5.63-5.9c-0.35-1.88-0.47-3.83-0.48-5.76c-0.04-11.76-0.02-23.53-0.02-35.29
		c0-0.94,0-1.88,0-2.98c-82.65,0-165.02,0-247.59,0c0,130.54,0,261.04,0,391.95c1.15,0,2.34,0,3.53,0
		c81.46,0,162.91,0.01,244.37-0.04c2.9,0,5.39,0.56,7.92,2.09C467.23,552.09,481.33,556.92,496.33,559.49z M513.66,133.15
		c6.06,0,11.83,0,17.73,0c-6.05-5.9-11.91-11.6-17.73-17.27C513.66,121.43,513.66,127.25,513.66,133.15z M463.89,165.04
		c0,6.26,0,12.08,0,17.75c6.06,0,11.9,0,16.96,0C475.42,177.1,469.77,171.19,463.89,165.04z M563.43,67.04c0,5.85,0,11.23,0,16.56
		c5.57,0,10.91,0,16.8,0c-5.33-5.32-10.27-10.26-15.22-15.19C564.61,68,564.14,67.65,563.43,67.04z"/>
	<path class="st1" d="M612.94,445.59c-0.02,55.23-45.64,100.84-100.78,100.76c-55.21-0.08-100.59-45.65-100.58-100.97
		c0.01-53.47,43.76-101.55,102.48-100.68C570.02,345.54,613.03,392.58,612.94,445.59z M575.68,421.57
		c0.03-9.31-6.91-16.53-16.19-16.99c-6.38-0.32-10.95,2.96-15.21,7.12c-16.89,16.49-33.8,32.95-50.74,49.39
		c-3.2,3.1-5.02,2.98-8.23-0.21c-6.41-6.37-12.81-12.76-19.23-19.12c-3.4-3.36-7.37-5.66-12.21-6.14c-6.21-0.62-11.2,1.77-14.86,6.7
		c-3.36,4.52-3,9.53-0.54,14.18c1.94,3.68,4.37,7.21,7.12,10.34c6.32,7.17,12.91,14.11,19.5,21.04c4.77,5.01,9.37,10.28,14.66,14.69
		c8.14,6.78,16.17,6.26,23.7-1.28c22.51-22.54,44.89-45.21,67.26-67.88C573.89,430.18,575.7,426.21,575.68,421.57z"/>
	<path class="st1" d="M347.66,271.97c36.33,0,72.66,0,109,0c6.07,0,9.57,2.4,10.42,7.14c0.82,4.63-2.14,8.92-6.82,9.55
		c-2.51,0.33-5.07,0.31-7.61,0.31c-70.91,0.01-141.82,0.01-212.73,0c-1.58,0-3.17-0.03-4.72-0.24c-4.04-0.55-7.09-3.73-7.28-7.46
		c-0.23-4.45,2.28-7.89,6.59-8.86c1.27-0.29,2.6-0.42,3.91-0.42C274.82,271.97,311.24,271.97,347.66,271.97z"/>
	<path class="st1" d="M347.73,245.41c-36.07,0-72.14,0.01-108.21-0.02c-1.65,0-3.35-0.08-4.95-0.45c-4.45-1.02-7.1-4.74-6.66-9.07
		c0.42-4.05,3.61-7.1,8.05-7.22c7.63-0.21,15.27-0.24,22.9-0.24c64.59,0.01,129.19,0.04,193.78,0.08c2.45,0,4.92-0.06,7.35,0.21
		c4.26,0.46,6.68,3.12,7.12,7.46c0.41,4.07-1.52,7.26-5.47,8.52c-1.64,0.52-3.44,0.71-5.17,0.71
		C420.22,245.42,383.98,245.41,347.73,245.41z"/>
	<path class="st1" d="M347.47,332.56c-36.23,0-72.47,0-108.7-0.01c-1.14,0-2.28-0.04-3.42-0.15c-4.17-0.4-6.86-3.06-7.38-7.27
		c-0.51-4.09,1.56-7.5,5.55-8.74c1.56-0.48,3.27-0.7,4.91-0.7c72.73-0.03,145.46-0.03,218.19,0c1.64,0,3.36,0.17,4.92,0.65
		c4.05,1.26,6.03,4.52,5.55,8.7c-0.51,4.41-3.12,7.04-7.5,7.36c-2.44,0.17-4.91,0.12-7.36,0.12c-34.92,0.01-69.83,0-104.75,0
		C347.47,332.53,347.47,332.54,347.47,332.56z"/>
	<path class="st1" d="M436,359.47c-4.82,5.38-9.54,10.75-14.41,15.98c-0.57,0.61-1.91,0.69-2.9,0.69
		c-7.98,0.05-15.97,0.03-23.95,0.03c-51.42,0-102.83,0-154.25,0c-1.49,0-2.99,0.01-4.47-0.07c-4.8-0.27-7.71-3.07-8.08-7.7
		c-0.36-4.57,2.15-7.72,6.99-8.6c1.63-0.3,3.31-0.44,4.96-0.44c64.75-0.02,129.51-0.01,194.26,0.01
		C434.81,359.37,435.47,359.44,436,359.47z"/>
	<path class="st1" d="M415.54,507.3c-4.56,0-9.27,0-13.99,0c-53.6,0.01-107.19,0.04-160.79,0.02c-2.18,0-4.41-0.08-6.52-0.55
		c-4.37-0.98-6.62-4.15-6.32-8.38c0.32-4.43,3.02-7.29,7.45-7.8c1.04-0.12,2.1-0.09,3.15-0.09c55.09,0,110.17,0.01,165.26-0.06
		c2.4,0,3.5,0.76,4.5,2.89C410.56,498.15,413.18,502.8,415.54,507.3z"/>
	<path class="st1" d="M405.54,403.15c-1.49,5-3.03,10.29-4.67,15.54c-0.16,0.5-0.87,0.96-1.42,1.16c-0.54,0.2-1.21,0.05-1.83,0.05
		c-52.55,0-105.09,0.01-157.64-0.02c-2.09,0-4.23-0.08-6.25-0.55c-3.83-0.89-5.86-3.88-5.81-8c0.05-3.92,2.17-6.8,5.9-7.69
		c1.69-0.4,3.47-0.57,5.2-0.57c51.23,0,102.46,0.04,153.69,0.07C397,403.15,401.27,403.15,405.54,403.15z"/>
	<path class="st1" d="M397.57,446.93c0.46,5.53,0.9,10.93,1.37,16.6c-0.97,0.04-1.91,0.12-2.84,0.12
		c-51.61,0.01-103.21,0.02-154.82-0.04c-2.68,0-5.45-0.31-8.02-1.05c-3.85-1.11-5.48-3.78-5.38-7.73c0.09-3.6,1.82-5.98,5.55-7.06
		c1.99-0.58,4.13-0.94,6.2-0.94c51.96-0.05,103.92-0.04,155.87-0.04C396.18,446.79,396.86,446.88,397.57,446.93z"/>
	<path class="st1" d="M297.41,184.89c19.22,0,38.44,0,57.65,0.01c1.32,0,2.64-0.03,3.94,0.14c3.9,0.5,6.47,3.25,6.83,7.18
		c0.4,4.42-1.27,7.35-5.21,8.61c-1.73,0.55-3.61,0.86-5.42,0.86c-38.61,0.03-77.22,0.01-115.83-0.07c-1.89,0-3.82-0.47-5.66-1
		c-3.09-0.89-4.73-3.13-5.24-6.28c-0.51-3.14,0.83-5.28,3.21-7.25c2.77-2.29,5.81-2.27,9.12-2.25
		C259.68,184.94,278.55,184.89,297.41,184.89z"/>
</g>
</svg>
