<?xml version="1.0" encoding="utf-8"?>
<!-- Generator: Adobe Illustrator 28.0.0, SVG Export Plug-In . SVG Version: 6.00 Build 0)  -->
<svg version="1.1" id="Capa_1" xmlns="http://www.w3.org/2000/svg" xmlns:xlink="http://www.w3.org/1999/xlink" x="0px" y="0px"
	 viewBox="0 0 794.33 591.43" style="enable-background:new 0 0 794.33 591.43;" xml:space="preserve">
<style type="text/css">
	.st0{display:none;fill:#0d2437;}
	.st1{fill:#0d2437;}
	.st2{fill:#0d2437;}
	.st3{fill:#0d2437;stroke:#0078B1;stroke-width:7;stroke-miterlimit:10;}
	.st4{fill:none;stroke:#0d2437;stroke-width:12;stroke-miterlimit:10;}
	.st5{fill:#0d2437;stroke:#0078B1;stroke-width:5;stroke-linecap:round;stroke-linejoin:round;stroke-miterlimit:10;}
</style>
<g>
	<path class="st1" d="M287.41,515.59c17.06-24.66,32.79-50.06,40.86-79.3c2.55-9.25,3.94-18.82,5.88-28.24
		c0.22-1.09,0.49-2.17,0.84-3.68c1.83,0.58,3.39,0.98,4.88,1.55c21.53,8.26,42.87,17.07,64.64,24.65
		c9.02,3.14,16.38,7.71,22.3,13.57c0,0.01,0,0.01,0.01,0.01c0.04,0.04,0.08,0.08,0.12,0.12c1.39,1.38,2.69,2.83,3.92,4.34
		c5.12,6.31,8.91,13.82,11.6,22.37c1.18,3.76,1.95,7.64,2.64,11.55c0.4,2.27,0.96,4.51,1.5,6.75c0.44,2.74,0.88,5.49,1.31,8.29
		c1.08,7.05,1.08,15.15,1.72,22.26c0.46,4.99,3.41,8.32,7.48,8.53c4,0.21,6.95-2.97,7.51-8.33c0.21-1.97,0.25-3.99,0.09-5.97
		c-0.39-4.68-0.94-9.39-1.54-14.11c-0.01-0.69-0.06-1.41-0.18-2.17c-0.99-6.14-1.54-12.39-2.56-18.53c0-0.03-0.01-0.06-0.01-0.09
		c-0.22-1.77-0.57-3.5-1.01-5.21c-0.2-0.9-0.42-1.8-0.66-2.69c-1.71-6.42-3.91-12.43-6.62-17.99c0-0.01-0.01-0.03-0.01-0.04l0,0
		c-2.79-5.72-6.14-10.96-10.1-15.66c-0.8-0.96-1.63-1.89-2.49-2.8c-6.74-7.19-15.09-12.97-25.27-17.1c-1.62-0.66-3.3-1.28-5.02-1.85
		c-14.81-4.95-29.55-10.08-44.28-15.24c-3.92-1.38-7.7-3.2-12.75-5.33c3.5-0.84,5.43-1.32,7.37-1.78
		c15.23-3.59,29.47-9.26,41.4-19.75c4.8-4.22,4.56-6.17,1.12-11.43c-3.76-5.76-7.62-11.75-9.81-18.2c-0.13-0.39-0.26-0.77-0.39-1.16
		c-1.7-5.05-3.32-10.11-4.84-15.19c-10.67-35.64-16.8-72.1-17.19-109.68c-0.26-24.66-6.09-48.44-16.86-70.75
		c-21.32-44.19-64.9-78.46-123.11-67.06c-40.14,7.85-70.88,28.48-87.99,66.72c-11.46,25.6-15.03,52.89-16.45,80.6
		c-0.72,13.94-0.9,27.96-2.64,41.78c-3.6,28.65-12.12,56.13-21.91,83.19c-0.96,2.64-2.93,5.25-5.11,7.06
		c-6.78,5.64-7.02,8.99-0.4,14.67c0.88,0.76,1.82,1.46,2.75,2.16c12.99,9.86,28.09,14.81,45.06,18.96
		c-2.43,1.23-3.64,2.02-4.97,2.48c-15.01,5.3-29.99,10.72-45.1,15.76c-9.67,3.22-19.16,6.68-27.22,13.13
		c-15.99,12.81-24.6,28.94-28.89,47.03c-0.88,2.63-1.58,5.29-1.91,7.98c-1.36,11.03-2.05,22.15-2.97,33.23
		c-0.15,1.89-0.12,3.83,0.08,5.71c0.54,5.12,3.36,8.16,7.19,7.96c3.9-0.2,6.72-3.39,7.16-8.16c0.62-6.8,0.86-13.67,1.89-20.41
		c0.26-1.69,0.45-3.44,0.6-5.23c0.31-0.46,0.5-0.86,0.5-1.18c-0.2-29.54,17.63-54.35,45.45-64.02c17.7-6.16,35.32-12.57,52.89-19.08
		c4.31-1.59,8.31-4.02,13.43-6.55c6.28,53.99,35.62,96.12,67.41,138.64c0,0,19.54,33.43,39.68-0.26
		C275.19,532.91,281.38,524.31,287.41,515.59z M312.16,435.93c-3.82,11.47-8.57,22.32-14.03,32.77
		c-7.1,13.6-15.41,26.53-24.43,39.31c-4.24-21.5-4.35-42.31-0.89-63.12c0.23-1.42,1.63-3.4,2.89-3.77
		c7.03-2.04,13.82-4.55,20.44-7.78c6.23-3.03,12.3-6.71,18.27-11.26c0.75-0.56,1.5-1.14,2.24-1.74
		C315.35,425.67,313.84,430.86,312.16,435.93z M116.3,369.48c-1.57-0.86-2.95-2.08-3.83-2.71c4.9-14.97,10-29.35,14.29-43.96
		c7.5-25.56,13.11-51.5,14.44-78.25c0.81-16.25,1.37-32.57,3.4-48.69c2.9-23.16,9.83-45.03,24.33-63.99
		c14.85-19.4,35.2-29.01,58.23-34.79c44.63-11.2,84.22,8.69,107.08,48.71c14.31,25.07,20.62,52.34,20.44,80.78
		c-0.24,36.98,7.1,72.26,17.91,106.87c1.58,5.05,3.23,10.09,4.95,15.11c1.48,4.36,3.02,8.71,4.59,13.06
		c0.62,1.71,1.28,3.4,2.06,5.47c-10.3,6.52-21.53,10.38-33.34,12.32c-7.16,1.17-14.55,2.04-21.76,1.61
		c-0.32-0.02-0.64-0.04-0.95-0.07c-6.05-0.54-11.14-2.76-14.98-6.3c-4.5-4.14-7.31-10.08-7.97-17.27
		c-0.67-7.27-0.76-14.61-0.75-21.91c0-1.78,1.06-3.86,2.25-5.28c11.3-13.37,19.8-28.23,24.97-45.04c1.04-3.38,3.19-6.54,5.3-9.45
		c8.98-12.35,14.25-25.85,13.21-41.33c-0.53-7.78-4.03-13.87-10.96-17.92c-1.73-1.01-3.47-2.75-4.22-4.55
		c-7.85-19.06-21.05-33.32-38.81-43.39c-10.11-5.74-20.81-10.5-30.64-16.65c-9.95-6.24-19.18-13.64-28.7-20.57
		c-2.15-1.56-3.97-3.87-6.34-4.73c-2.19-0.8-5.67-1.08-7.23,0.14c-1.81,1.42-3.17,4.87-2.85,7.18c0.4,2.88,2.15,6.13,4.32,8.11
		c6,5.46,12.05,11.09,18.92,15.29c12.74,7.8,26.44,14.04,39.04,22.02c9.75,6.17,18.85,13.54,27.46,21.24
		c6.37,5.71,9.92,13.68,12,22.05c1.06,4.23,3.02,7.39,7.68,8.01c3.96,0.52,5.31,2.95,5.08,6.63c-0.65,10.7-3.61,20.47-10.65,28.92
		c-2.58,3.09-4.87,6.78-6.08,10.59c-6.75,21.22-17.81,39.5-34.49,54.49c-21.31,19.13-46.86,20-68.95,1.58
		c-17.76-14.8-29.09-33.82-36.39-55.58c-1.53-4.55-4.25-8.89-7.16-12.77c-6.32-8.42-9.28-17.9-10.22-28.16
		c-0.28-3,0.87-5.16,4.33-5.45c5.79-0.49,7.69-4.22,8.05-9.51c0.81-12.21,3.2-24.02,9.36-34.82c6.86-12.02,16.79-19.98,30.35-23.23
		c0.97-0.23,1.97-0.35,2.9-0.68c3.52-1.24,6.63-3.25,6.09-7.4c-0.54-4.22-3.68-7.5-7.78-7.01c-6.46,0.78-13.36,1.77-19.02,4.71
		c-19.63,10.17-29.94,27.55-34.85,48.56c-0.3,1.29-0.76,2.61-0.75,3.91c0.08,6.16-2.26,10.2-7.63,14.09
		c-8.08,5.85-7.62,15.44-6.17,24.31c1.88,11.47,6.72,21.8,13.32,31.4c2.58,3.76,4.69,8,6.2,12.31
		c5.46,15.53,12.57,30.01,24.13,42.03c1.38,1.42,2.51,3.76,2.53,5.69c0.09,7.47,0.22,15-0.64,22.4
		c-1.62,13.99-10.3,22.64-24.2,23.31C149.32,381.78,132.18,378.12,116.3,369.48z M207.67,348.09c26.85,19.21,53.8,18.87,81.45-0.08
		c-0.41,10.84,0.81,20.72,6.43,29.59c2.9,4.57,6.37,8.48,10.43,11.87c3.74,3.13,7.99,5.81,12.77,8.17
		c-5.97,5.94-12.23,11.17-18.84,15.55c-13.54,8.99-28.55,14.41-45.61,15.15c-29.94,1.3-55.46-9.33-76.99-31.05
		C201,384.12,204.88,377.75,207.67,348.09z M219.9,440.71c1.38,0.5,3.12,2.07,3.34,3.38c3.57,20.78,4.03,41.59,0.15,62.4
		c-0.08,0.43-0.3,0.83-0.69,1.9c-17.96-27.65-35.37-54.89-42.81-88.26C192.28,430.39,205.99,435.73,219.9,440.71z M248.15,543.25
		c-3.93-5.26-8.15-10.17-11.4-15.66c-1.21-2.03-0.41-5.45-0.03-8.17c1.42-10.2,3.9-20.32,4.4-30.55c0.7-14.52,0.01-29.11-0.09-44.19
		h16.18c-3.67,18.01-3.31,35.85-0.97,53.68c0.95,7.23,2.33,14.42,3.82,21.57c0.9,4.35,0.45,8-2.67,11.46
		C254.19,534.94,251.48,538.93,248.15,543.25z"/>
	<path class="st1" d="M759.95,454.55c-1.54-11.53-2.84-23.1-4.83-34.55c-2.87-16.44-7.48-32.33-16.18-46.84
		c-10.86-18.12-27.89-27.82-46.69-35.53c-26.42-10.83-52.62-22.19-79.02-33.06c-9.15-3.76-14.6-10.58-17.77-18.16
		c6.96-13.08,13.9-25.35,20.02-38.01c2.56-5.29,4.72-10.33,9.69-14c2.69-1.97,4.61-5.23,6.32-8.23
		c6.57-11.57,10.47-24.11,11.57-37.32c0.78-9.33-0.26-18.73-9.19-24.3c-3.51-2.19-3.57-4.48-3.3-7.72
		c0.77-9.11,1.74-18.21,1.98-27.34c1.02-38.14-15.62-66.22-49.3-83.87c-26.89-14.09-55.7-16.85-85.36-12.31
		c-47.15,7.2-75,37.49-77.11,84.76c-0.64,14.33,0.98,28.75,1.59,43.8c-9.48,4.27-12.91,13.36-12.34,23.98
		c1.1,20.75,8.18,39.17,23.02,54.2c1.01,1.03,1.96,2.32,2.45,3.67c5.16,14.36,12.67,27.4,21.82,39.56c0.64,0.85,1.58,2.46,1.26,2.91
		c-3.54,4.93-6.31,11.61-11.19,14.16c-16.59,8.67-33.84,16.14-51.05,23.56c-3.08,1.32-6.18,2.6-9.29,3.86
		c-4.8,1.93-9.63,3.8-14.46,5.68c1.58,5.05,3.23,10.09,4.95,15.11c4.79-1.85,9.57-3.72,14.35-5.6c7.09-2.77,14.17-5.56,21.26-8.32
		c2.71-1.05,5.44-2.05,9.19-3.46c-9.2,16.24-13.42,32.93-17.11,49.79c-2.03,9.25-1.09,17.9,3.57,26.47
		c1.85,3.4,3.67,6.82,5.45,10.26c4.4,8.5,8.56,17.12,12.38,25.87c0.07,0.17,0.08,0.41,0.18,0.57c0,0.01,0,0.01,0.01,0.01
		c0.04,0.04,0.08,0.08,0.12,0.12c15.43,8.11,26.62,20.07,23.79,14.03c-3.69-7.86-7.44-15.68-11.21-23.5
		c-6.03-12.51-12.1-25.01-18-37.58c-1.33-2.84-2.12-6.6-1.49-9.58c4.84-22.86,11.83-44.97,24.72-64.78c1.11-1.71,2.72-3.1,4.1-4.64
		c0.51,0.16,1.03,0.31,1.54,0.47c0.47,1.85,1.18,3.68,1.36,5.56c1.04,10.91,1.88,21.85,2.91,32.77
		c4.62,49.02,16.6,96.12,37.18,140.92c4.09,8.9,8.43,17.68,12.97,26.35c2,3.83,5.47,5.27,9.71,3.25c4.1-1.95,5.46-5.35,3.72-10.01
		c-0.92-2.47-2.13-4.9-3.61-7.09c-3.54-5.26-4.23-10.87-3.51-17.11c3.26-28.4,6.39-56.81,9.23-85.26c0.41-4.11-0.95-8.42-1.63-12.62
		c-0.61-3.74-1.88-7.44-2-11.18c-0.2-6.1,3.24-9.49,8.93-9.74c6.6-0.3,10.31,2.58,10.6,9.07c0.15,3.22-1.12,6.48-1.59,9.75
		c-0.76,5.37-2.43,10.86-1.92,16.13c2.46,25.31,5.29,50.58,8.47,75.8c1.28,10.16,1.92,19.81-4.75,28.55
		c-1.24,1.62-2.33,4.16-1.98,5.98c0.51,2.61,1.84,5.86,3.88,7.14c1.85,1.17,5.81,1.03,7.61-0.25c2.68-1.91,4.76-5.1,6.25-8.16
		c4.66-9.55,9.15-19.19,13.28-28.98c21.35-50.6,32.14-103.56,35.03-158.27c0.24-4.51,1.14-8.98,1.74-13.46
		c0.59-0.15,1.19-0.3,1.78-0.45c3.38,5.02,7.14,9.83,10.07,15.1c8.77,15.81,13.66,33.07,18.34,50.41
		c1.78,6.59,0.59,12.15-2.63,18.05c-5.96,10.92-11.57,22.05-16.65,33.39c-8.9,19.87-17.39,39.91-29.68,58.03
		c-5.13,7.57-10.21,15.16-15.17,22.85c-2.82,4.37-2.39,8.05,1.01,10.65c3.69,2.81,7.23,1.83,10.39-0.96
		c1.61-1.41,3.07-3.06,4.33-4.79c12.36-16.97,23.23-34.82,32.21-53.81c9.92-21.01,20.17-41.86,29.68-63.05
		c2.2-4.91,3.39-11.11,2.6-16.34c-1.69-11.11-4.6-22.08-7.76-32.89c-2.28-7.81-5.77-15.25-8.83-23.14c3.37,1.33,6.48,2.47,9.53,3.76
		c20.33,8.58,40.9,16.66,60.88,25.98c15.3,7.14,25.64,19.66,30.1,36.03c3.88,14.22,6.72,28.74,9.66,43.19
		c1.43,6.99,2.04,14.15,3.04,21.22c0.71,4.96,3.82,8.14,7.9,8.15c4.01,0.01,6.79-3.31,7.09-8.69
		C760.27,458.54,760.21,456.52,759.95,454.55z M447.34,81.28c10.66-17.5,26.81-27.37,46.57-31.26c26.12-5.15,52.08-4.82,76.65,6.58
		c22.36,10.37,39.11,26.36,44.49,51.59c3.51,16.5,1.9,33.02-1.78,49.58c-0.92-7.18-1.67-14.39-2.81-21.53
		c-1.41-8.82-4.24-17.01-10.73-23.63c-9.19-9.36-21.11-12.26-33.3-7.5c-4.47,1.74-8.92,3.7-13.08,6.08
		c-25.08,14.3-51.6,15.9-79.13,9.41c-3.38-0.79-6.84-1.5-10.29-1.66c-10.22-0.47-16.07,3.28-19.03,13.15
		c-2.04,6.79-2.84,13.96-4.15,20.96c-0.23,1.21-0.25,2.46-0.36,3.69c-0.45,0.03-0.89,0.06-1.34,0.1
		c-0.96-7.11-2.28-14.19-2.82-21.33C434.79,116.42,437.18,97.95,447.34,81.28z M450.23,236.65c-1.34-3.77-4.76-6.84-7.39-10.1
		c-1.86-2.31-4.36-4.15-5.94-6.61c-5.72-8.92-9.32-18.72-10.86-29.2c-0.7-4.76-0.88-9.64,4.06-15.02c1.58,4.82,2.91,8.63,4.07,12.49
		c0.71,2.38,0.63,5.16,1.85,7.18c1.5,2.47,3.64,5.43,6.12,6.2c3.77,1.17,7.38-1.19,8.85-4.85c1.45-3.63,2.18-7.63,2.66-11.53
		c1.77-14.35,3.23-28.72,4.98-43.07c0.31-2.56,1.44-5.02,2.24-7.7c9.23,1.61,17.97,3.35,26.78,4.61c26.65,3.82,51.51-1.7,74.9-14.68
		c2.03-1.13,4.11-2.18,6.23-3.12c11.48-5.09,20.64-1.57,24.25,10.54c2.45,8.19,3.22,16.92,4.25,25.47
		c1.34,11.04,2.16,22.15,3.29,33.22c0.18,1.79,0.54,3.67,1.29,5.29c1.73,3.7,4.55,6.23,8.9,6.07c4.19-0.16,6.12-3.21,7.03-6.71
		c1.08-4.15,1.32-8.53,2.48-12.66c0.5-1.76,2.4-3.13,3.67-4.67c1.19,1.79,3.42,3.57,3.42,5.35c-0.07,17.4-4.3,33.1-18.75,44.64
		c-2.38,1.9-3.87,5.31-5.01,8.32c-8.74,23.11-22.03,43.15-40.39,59.68c-15.04,13.56-32.13,19.87-52.29,12.88
		c-11.98-4.15-21.11-12.43-29.56-21.46C467.6,272.47,457,255.79,450.23,236.65z M502.51,424.32c-1.64,14.67-3.47,29.32-5.22,43.98
		c-16.06-41.79-25.29-85.02-28.39-130.08c4.87,4.36,9.36,8.64,14.13,12.57c6.14,5.07,12.61,9.76,18.7,14.88
		c1.07,0.91,1.77,3.43,1.32,4.77c-3.03,9.12-3.69,18.27-0.32,27.33C506.06,406.74,503.49,415.5,502.51,424.32z M555.29,469.58
		c-0.55-5.2-1.09-10.41-1.67-15.61c-1.58-14.19-3.4-28.36-4.63-42.58c-0.39-4.48,0.19-9.26,1.37-13.62
		c2.48-9.13,2.37-17.97-0.66-26.92c-0.46-1.39,0.06-3.97,1.1-4.87c10.15-8.83,20.51-17.43,30.83-26.07
		c0.45-0.39,1.06-0.58,1.98-1.07C580.7,384.07,570.87,427.34,555.29,469.58z M585.95,312.9c-12.91,11.93-25.96,23.7-39.05,35.43
		c-3.08,2.77-6.36,5.34-9.73,7.74c-1.36,0.97-3.17,1.56-4.85,1.79c-10.14,1.34-18.49-1.95-26.02-9
		c-11.73-11.01-24.48-20.95-35.94-32.21c-8.04-7.9-8.73-6.82-0.18-18.19c15.72,15.71,32.24,29.85,56.48,29.14
		c23.46-0.67,41.17-12.23,56.44-29.83c1.81,3.91,3.61,6.92,4.53,10.18C588.03,309.37,587.12,311.83,585.95,312.9z M313.16,374.65
		c-2.83,4.6-5.22,9.54-7.18,14.82c3.74,3.13,7.99,5.81,12.77,8.17c-5.97,5.94-12.23,11.17-18.84,15.55
		c-1.35,6.7-2.61,13.42-3.77,20.15c6.23-3.03,12.3-6.71,18.27-11.26c0.56-3.34,1.12-6.68,1.69-10.02
		c2.06-11.99,6.07-22.35,12.04-31.11C322.09,380.41,317,378.19,313.16,374.65z M300.04,468.99c4.12,0.18,6.83-2.27,7.83-6.3
		c0.44-1.77,0.55-3.62,0.85-5.42c1.16-7.11,2.29-14.23,3.44-21.34c-3.82,11.47-8.57,22.32-14.03,32.77
		C298.73,468.86,299.37,468.96,300.04,468.99z"/>
</g>
</svg>
